<svg width="254" height="15" viewBox="0 0 254 15" fill="none" xmlns="http://www.w3.org/2000/svg">
<path d="M4.85716 1.156C5.55316 1.156 6.18116 1.28 6.74116 1.528C7.30116 1.768 7.74916 2.108 8.08516 2.548C8.42116 2.988 8.60916 3.484 8.64916 4.036H7.35316C7.28116 3.508 7.01716 3.076 6.56116 2.74C6.11316 2.404 5.52516 2.236 4.79716 2.236C4.06116 2.236 3.48116 2.376 3.05716 2.656C2.64116 2.928 2.43316 3.284 2.43316 3.724C2.43316 4.052 2.53316 4.328 2.73316 4.552C2.93316 4.768 3.24116 4.956 3.65716 5.116C4.08116 5.276 4.65316 5.432 5.37316 5.584C6.53316 5.832 7.37316 6.188 7.89316 6.652C8.42116 7.108 8.68516 7.7 8.68516 8.428C8.68516 8.988 8.51716 9.48 8.18116 9.904C7.84516 10.32 7.38516 10.64 6.80116 10.864C6.21716 11.096 5.56916 11.212 4.85716 11.212C4.11316 11.212 3.44516 11.084 2.85316 10.828C2.26916 10.572 1.80116 10.212 1.44916 9.748C1.09716 9.284 0.901156 8.744 0.861156 8.128H2.15716C2.22116 8.72 2.50116 9.2 2.99716 9.568C3.50116 9.936 4.14916 10.12 4.94116 10.12C5.41316 10.12 5.83716 10.052 6.21316 9.916C6.58916 9.78 6.88116 9.588 7.08916 9.34C7.29716 9.092 7.40116 8.812 7.40116 8.5C7.40116 8.148 7.30116 7.856 7.10116 7.624C6.90116 7.392 6.58916 7.196 6.16516 7.036C5.74916 6.868 5.17316 6.708 4.43716 6.556C3.31716 6.324 2.48916 5.988 1.95316 5.548C1.42516 5.108 1.16116 4.5 1.16116 3.724C1.16116 3.204 1.31716 2.752 1.62916 2.368C1.94916 1.976 2.38916 1.676 2.94916 1.468C3.50916 1.26 4.14516 1.156 4.85716 1.156ZM13.378 3.964C14.042 3.964 14.642 4.12 15.178 4.432C15.714 4.744 16.13 5.176 16.426 5.728C16.73 6.272 16.882 6.884 16.882 7.564C16.882 8.244 16.73 8.86 16.426 9.412C16.13 9.956 15.714 10.384 15.178 10.696C14.642 11.008 14.042 11.164 13.378 11.164C12.706 11.164 12.102 11.008 11.566 10.696C11.038 10.384 10.622 9.956 10.318 9.412C10.014 8.86 9.862 8.244 9.862 7.564C9.862 6.884 10.014 6.272 10.318 5.728C10.622 5.176 11.038 4.744 11.566 4.432C12.102 4.12 12.706 3.964 13.378 3.964ZM13.378 5.056C12.93 5.056 12.53 5.168 12.178 5.392C11.834 5.608 11.562 5.908 11.362 6.292C11.17 6.668 11.074 7.092 11.074 7.564C11.074 8.036 11.17 8.464 11.362 8.848C11.562 9.224 11.834 9.524 12.178 9.748C12.53 9.964 12.93 10.072 13.378 10.072C13.818 10.072 14.214 9.964 14.566 9.748C14.918 9.524 15.19 9.224 15.382 8.848C15.574 8.464 15.67 8.036 15.67 7.564C15.67 7.092 15.574 6.668 15.382 6.292C15.19 5.908 14.918 5.608 14.566 5.392C14.214 5.168 13.818 5.056 13.378 5.056ZM21.6163 3.964C22.2803 3.964 22.8803 4.12 23.4163 4.432C23.9523 4.744 24.3683 5.176 24.6643 5.728C24.9683 6.272 25.1203 6.884 25.1203 7.564C25.1203 8.244 24.9683 8.86 24.6643 9.412C24.3683 9.956 23.9523 10.384 23.4163 10.696C22.8803 11.008 22.2803 11.164 21.6163 11.164C20.9443 11.164 20.3403 11.008 19.8043 10.696C19.2763 10.384 18.8603 9.956 18.5563 9.412C18.2523 8.86 18.1003 8.244 18.1003 7.564C18.1003 6.884 18.2523 6.272 18.5563 5.728C18.8603 5.176 19.2763 4.744 19.8043 4.432C20.3403 4.12 20.9443 3.964 21.6163 3.964ZM21.6163 5.056C21.1683 5.056 20.7683 5.168 20.4163 5.392C20.0723 5.608 19.8003 5.908 19.6003 6.292C19.4083 6.668 19.3123 7.092 19.3123 7.564C19.3123 8.036 19.4083 8.464 19.6003 8.848C19.8003 9.224 20.0723 9.524 20.4163 9.748C20.7683 9.964 21.1683 10.072 21.6163 10.072C22.0563 10.072 22.4523 9.964 22.8043 9.748C23.1563 9.524 23.4283 9.224 23.6203 8.848C23.8123 8.464 23.9083 8.036 23.9083 7.564C23.9083 7.092 23.8123 6.668 23.6203 6.292C23.4283 5.908 23.1563 5.608 22.8043 5.392C22.4523 5.168 22.0563 5.056 21.6163 5.056ZM27.9346 4.132V5.176C28.1106 4.864 28.3986 4.584 28.7986 4.336C29.2066 4.088 29.6946 3.964 30.2626 3.964C30.7986 3.964 31.2746 4.088 31.6906 4.336C32.1146 4.584 32.4426 4.936 32.6746 5.392C32.9066 5.84 33.0226 6.368 33.0226 6.976V10.996H31.7866V7.192C31.7866 6.504 31.6266 5.976 31.3066 5.608C30.9946 5.232 30.5586 5.044 29.9986 5.044C29.6066 5.044 29.2546 5.156 28.9426 5.38C28.6306 5.596 28.3826 5.888 28.1986 6.256C28.0226 6.624 27.9346 7.02 27.9346 7.444V10.996H26.6986V4.132H27.9346ZM38.1328 14.08C37.2048 14.08 36.4608 13.848 35.9008 13.384C35.3488 12.928 35.0088 12.348 34.8808 11.644H36.1408C36.2208 12.044 36.4248 12.372 36.7528 12.628C37.0888 12.884 37.5488 13.012 38.1328 13.012C38.7648 13.012 39.2728 12.812 39.6568 12.412C40.0488 12.02 40.2448 11.492 40.2448 10.828V9.88C40.0528 10.208 39.7448 10.488 39.3208 10.72C38.8968 10.952 38.3928 11.068 37.8088 11.068C37.1688 11.068 36.5888 10.912 36.0688 10.6C35.5568 10.296 35.1528 9.876 34.8568 9.34C34.5608 8.796 34.4128 8.192 34.4128 7.528C34.4128 6.864 34.5608 6.26 34.8568 5.716C35.1528 5.172 35.5568 4.744 36.0688 4.432C36.5888 4.12 37.1688 3.964 37.8088 3.964C38.3928 3.964 38.8968 4.08 39.3208 4.312C39.7448 4.544 40.0528 4.824 40.2448 5.152V4.132H41.4808V10.84C41.4808 11.464 41.3368 12.02 41.0488 12.508C40.7688 13.004 40.3728 13.388 39.8608 13.66C39.3568 13.94 38.7808 14.08 38.1328 14.08ZM37.9168 10C38.3728 10 38.7768 9.892 39.1288 9.676C39.4888 9.46 39.7688 9.164 39.9688 8.788C40.1688 8.412 40.2688 7.992 40.2688 7.528C40.2688 7.064 40.1688 6.644 39.9688 6.268C39.7688 5.892 39.4888 5.596 39.1288 5.38C38.7768 5.164 38.3728 5.056 37.9168 5.056C37.4688 5.056 37.0688 5.164 36.7168 5.38C36.3728 5.596 36.1048 5.892 35.9128 6.268C35.7208 6.644 35.6248 7.064 35.6248 7.528C35.6248 7.992 35.7208 8.412 35.9128 8.788C36.1048 9.164 36.3728 9.46 36.7168 9.676C37.0688 9.892 37.4688 10 37.9168 10ZM47.0212 1.156C47.7172 1.156 48.3452 1.28 48.9052 1.528C49.4652 1.768 49.9132 2.108 50.2492 2.548C50.5852 2.988 50.7732 3.484 50.8132 4.036H49.5172C49.4452 3.508 49.1812 3.076 48.7252 2.74C48.2772 2.404 47.6892 2.236 46.9612 2.236C46.2252 2.236 45.6452 2.376 45.2212 2.656C44.8052 2.928 44.5972 3.284 44.5972 3.724C44.5972 4.052 44.6972 4.328 44.8972 4.552C45.0972 4.768 45.4052 4.956 45.8212 5.116C46.2452 5.276 46.8172 5.432 47.5372 5.584C48.6972 5.832 49.5372 6.188 50.0572 6.652C50.5852 7.108 50.8492 7.7 50.8492 8.428C50.8492 8.988 50.6812 9.48 50.3452 9.904C50.0092 10.32 49.5492 10.64 48.9652 10.864C48.3812 11.096 47.7332 11.212 47.0212 11.212C46.2772 11.212 45.6092 11.084 45.0172 10.828C44.4332 10.572 43.9652 10.212 43.6132 9.748C43.2612 9.284 43.0652 8.744 43.0252 8.128H44.3212C44.3852 8.72 44.6652 9.2 45.1612 9.568C45.6652 9.936 46.3132 10.12 47.1052 10.12C47.5772 10.12 48.0012 10.052 48.3772 9.916C48.7532 9.78 49.0452 9.588 49.2532 9.34C49.4612 9.092 49.5652 8.812 49.5652 8.5C49.5652 8.148 49.4652 7.856 49.2652 7.624C49.0652 7.392 48.7532 7.196 48.3292 7.036C47.9132 6.868 47.3372 6.708 46.6012 6.556C45.4812 6.324 44.6532 5.988 44.1172 5.548C43.5892 5.108 43.3252 4.5 43.3252 3.724C43.3252 3.204 43.4812 2.752 43.7932 2.368C44.1132 1.976 44.5532 1.676 45.1132 1.468C45.6732 1.26 46.3092 1.156 47.0212 1.156ZM52.9981 0.964C53.2381 0.964 53.4341 1.044 53.5861 1.204C53.7461 1.356 53.8261 1.548 53.8261 1.78C53.8261 2.012 53.7461 2.208 53.5861 2.368C53.4341 2.52 53.2381 2.596 52.9981 2.596C52.7661 2.596 52.5701 2.52 52.4101 2.368C52.2581 2.208 52.1821 2.012 52.1821 1.78C52.1821 1.548 52.2581 1.356 52.4101 1.204C52.5701 1.044 52.7661 0.964 52.9981 0.964ZM52.3861 11.008V4.132H53.6221V11.008H52.3861ZM55.5618 10.996V1.084H56.7978V10.996H55.5618ZM63.2889 1.384V6.856C63.2889 7.496 63.4049 8.06 63.6369 8.548C63.8769 9.028 64.2169 9.404 64.6569 9.676C65.1049 9.94 65.6289 10.072 66.2289 10.072C66.8289 10.072 67.3489 9.94 67.7889 9.676C68.2289 9.404 68.5649 9.028 68.7969 8.548C69.0369 8.06 69.1569 7.496 69.1569 6.856V1.384H70.4169V6.856C70.4169 7.728 70.2449 8.496 69.9009 9.16C69.5569 9.816 69.0689 10.324 68.4369 10.684C67.8049 11.044 67.0689 11.224 66.2289 11.224C65.3889 11.224 64.6489 11.044 64.0089 10.684C63.3769 10.324 62.8889 9.816 62.5449 9.16C62.2009 8.496 62.0289 7.728 62.0289 6.856V1.384H63.2889ZM73.5205 4.132V5.176C73.6965 4.864 73.9845 4.584 74.3845 4.336C74.7925 4.088 75.2805 3.964 75.8485 3.964C76.3845 3.964 76.8605 4.088 77.2765 4.336C77.7005 4.584 78.0285 4.936 78.2605 5.392C78.4925 5.84 78.6085 6.368 78.6085 6.976V10.996H77.3725V7.192C77.3725 6.504 77.2125 5.976 76.8925 5.608C76.5805 5.232 76.1445 5.044 75.5845 5.044C75.1925 5.044 74.8405 5.156 74.5285 5.38C74.2165 5.596 73.9685 5.888 73.7845 6.256C73.6085 6.624 73.5205 7.02 73.5205 7.444V10.996H72.2845V4.132H73.5205ZM80.9707 0.964C81.2107 0.964 81.4067 1.044 81.5587 1.204C81.7187 1.356 81.7987 1.548 81.7987 1.78C81.7987 2.012 81.7187 2.208 81.5587 2.368C81.4067 2.52 81.2107 2.596 80.9707 2.596C80.7387 2.596 80.5427 2.52 80.3827 2.368C80.2307 2.208 80.1547 2.012 80.1547 1.78C80.1547 1.548 80.2307 1.356 80.3827 1.204C80.5427 1.044 80.7387 0.964 80.9707 0.964ZM80.3587 11.008V4.132H81.5947V11.008H80.3587ZM89.9545 4.132L87.0505 10.996H85.7425L82.8505 4.132H84.1945L86.4385 9.592L88.6825 4.132H89.9545ZM93.8373 11.164C93.1813 11.164 92.5893 11.008 92.0613 10.696C91.5413 10.384 91.1333 9.956 90.8373 9.412C90.5413 8.86 90.3933 8.244 90.3933 7.564C90.3933 6.884 90.5413 6.272 90.8373 5.728C91.1333 5.176 91.5413 4.744 92.0613 4.432C92.5893 4.12 93.1813 3.964 93.8373 3.964C94.4933 3.964 95.0813 4.12 95.6013 4.432C96.1293 4.744 96.5373 5.176 96.8253 5.728C97.1213 6.272 97.2693 6.884 97.2693 7.564C97.2693 7.788 97.2613 7.956 97.2453 8.068H91.6293C91.6933 8.668 91.9253 9.16 92.3253 9.544C92.7333 9.928 93.2373 10.12 93.8373 10.12C94.2933 10.12 94.6933 10.028 95.0373 9.844C95.3893 9.652 95.6293 9.412 95.7573 9.124H97.0173C96.8253 9.724 96.4413 10.212 95.8653 10.588C95.2893 10.972 94.6133 11.164 93.8373 11.164ZM96.0573 7.06C95.9852 6.452 95.7493 5.96 95.3493 5.584C94.9493 5.2 94.4453 5.008 93.8373 5.008C93.2293 5.008 92.7253 5.2 92.3253 5.584C91.9253 5.96 91.6933 6.452 91.6293 7.06H96.0573ZM100.075 4.132V5.188C100.259 4.876 100.563 4.596 100.987 4.348C101.419 4.092 101.939 3.964 102.547 3.964C102.939 3.964 103.251 4.004 103.483 4.084V5.26C103.203 5.132 102.863 5.068 102.463 5.068C102.007 5.068 101.595 5.18 101.227 5.404C100.867 5.62 100.583 5.912 100.375 6.28C100.175 6.64 100.075 7.028 100.075 7.444V10.996H98.8392V4.132H100.075ZM107.41 3.964C107.962 3.964 108.462 4.052 108.91 4.228C109.358 4.396 109.714 4.632 109.978 4.936C110.25 5.232 110.394 5.572 110.41 5.956H109.198C109.174 5.668 108.99 5.432 108.646 5.248C108.302 5.064 107.878 4.972 107.374 4.972C106.878 4.972 106.466 5.06 106.138 5.236C105.818 5.412 105.658 5.628 105.658 5.884C105.658 6.18 105.806 6.416 106.102 6.592C106.406 6.768 106.962 6.912 107.77 7.024C108.77 7.16 109.486 7.392 109.918 7.72C110.35 8.048 110.566 8.488 110.566 9.04C110.566 9.472 110.426 9.848 110.146 10.168C109.874 10.488 109.502 10.732 109.03 10.9C108.558 11.076 108.034 11.164 107.458 11.164C106.858 11.164 106.33 11.072 105.874 10.888C105.418 10.712 105.058 10.464 104.794 10.144C104.538 9.832 104.394 9.476 104.362 9.076H105.574C105.614 9.372 105.798 9.628 106.126 9.844C106.462 10.052 106.918 10.156 107.494 10.156C108.03 10.156 108.474 10.06 108.826 9.868C109.178 9.668 109.354 9.416 109.354 9.112C109.354 8.824 109.19 8.596 108.862 8.428C108.542 8.252 107.982 8.112 107.182 8.008C106.238 7.88 105.546 7.656 105.106 7.336C104.666 7.008 104.446 6.548 104.446 5.956C104.446 5.564 104.574 5.216 104.83 4.912C105.094 4.608 105.45 4.376 105.898 4.216C106.346 4.048 106.85 3.964 107.41 3.964ZM112.74 0.964C112.98 0.964 113.176 1.044 113.328 1.204C113.488 1.356 113.568 1.548 113.568 1.78C113.568 2.012 113.488 2.208 113.328 2.368C113.176 2.52 112.98 2.596 112.74 2.596C112.508 2.596 112.312 2.52 112.152 2.368C112 2.208 111.924 2.012 111.924 1.78C111.924 1.548 112 1.356 112.152 1.204C112.312 1.044 112.508 0.964 112.74 0.964ZM112.128 11.008V4.132H113.364V11.008H112.128ZM118.904 5.224H117.38V10.996H116.144V5.224H114.62V4.132H116.144V2.044H117.38V4.132H118.904V5.224ZM126.739 4.132L122.455 13.912H121.207L122.563 10.852L119.623 4.132H120.979L123.187 9.532L125.455 4.132H126.739ZM132.499 1.384L136.207 7.912L139.915 1.384H141.019V10.996H139.759V3.904L136.663 9.376H135.751L132.655 3.904V10.996H131.395V1.384H132.499ZM146.043 11.164C145.403 11.164 144.823 11.008 144.303 10.696C143.791 10.384 143.387 9.952 143.091 9.4C142.795 8.848 142.647 8.236 142.647 7.564C142.647 6.892 142.795 6.28 143.091 5.728C143.387 5.176 143.791 4.744 144.303 4.432C144.823 4.12 145.403 3.964 146.043 3.964C146.627 3.964 147.131 4.08 147.555 4.312C147.979 4.544 148.287 4.824 148.479 5.152V4.132H149.715V10.996H148.479V9.976C148.287 10.304 147.979 10.584 147.555 10.816C147.131 11.048 146.627 11.164 146.043 11.164ZM146.151 10.072C146.607 10.072 147.011 9.964 147.363 9.748C147.723 9.524 148.003 9.224 148.203 8.848C148.403 8.464 148.503 8.036 148.503 7.564C148.503 7.092 148.403 6.668 148.203 6.292C148.003 5.908 147.723 5.608 147.363 5.392C147.011 5.168 146.607 5.056 146.151 5.056C145.703 5.056 145.303 5.164 144.951 5.38C144.607 5.596 144.339 5.896 144.147 6.28C143.955 6.664 143.859 7.092 143.859 7.564C143.859 8.036 143.955 8.464 144.147 8.848C144.339 9.232 144.607 9.532 144.951 9.748C145.303 9.964 145.703 10.072 146.151 10.072ZM154.176 7.852L152.82 9.28V10.996H151.584V1.084H152.82V7.804L156.24 4.132H157.692L154.956 7.024L157.98 10.996H156.516L154.176 7.852ZM161.689 11.164C161.033 11.164 160.441 11.008 159.913 10.696C159.393 10.384 158.985 9.956 158.689 9.412C158.393 8.86 158.245 8.244 158.245 7.564C158.245 6.884 158.393 6.272 158.689 5.728C158.985 5.176 159.393 4.744 159.913 4.432C160.441 4.12 161.033 3.964 161.689 3.964C162.345 3.964 162.933 4.12 163.453 4.432C163.981 4.744 164.389 5.176 164.677 5.728C164.973 6.272 165.121 6.884 165.121 7.564C165.121 7.788 165.113 7.956 165.097 8.068H159.481C159.545 8.668 159.777 9.16 160.177 9.544C160.585 9.928 161.089 10.12 161.689 10.12C162.145 10.12 162.545 10.028 162.889 9.844C163.241 9.652 163.481 9.412 163.609 9.124H164.869C164.677 9.724 164.293 10.212 163.717 10.588C163.141 10.972 162.465 11.164 161.689 11.164ZM163.909 7.06C163.837 6.452 163.601 5.96 163.201 5.584C162.801 5.2 162.297 5.008 161.689 5.008C161.081 5.008 160.577 5.2 160.177 5.584C159.777 5.96 159.545 6.452 159.481 7.06H163.909ZM167.879 1.384V6.856C167.879 7.496 167.995 8.06 168.227 8.548C168.467 9.028 168.807 9.404 169.247 9.676C169.695 9.94 170.219 10.072 170.819 10.072C171.419 10.072 171.939 9.94 172.379 9.676C172.819 9.404 173.155 9.028 173.387 8.548C173.627 8.06 173.747 7.496 173.747 6.856V1.384H175.007V6.856C175.007 7.728 174.835 8.496 174.491 9.16C174.147 9.816 173.659 10.324 173.027 10.684C172.395 11.044 171.659 11.224 170.819 11.224C169.979 11.224 169.239 11.044 168.599 10.684C167.967 10.324 167.479 9.816 167.135 9.16C166.791 8.496 166.619 7.728 166.619 6.856V1.384H167.879ZM179.574 3.964C180.126 3.964 180.626 4.052 181.074 4.228C181.522 4.396 181.878 4.632 182.142 4.936C182.414 5.232 182.558 5.572 182.574 5.956H181.362C181.338 5.668 181.154 5.432 180.81 5.248C180.466 5.064 180.042 4.972 179.538 4.972C179.042 4.972 178.63 5.06 178.302 5.236C177.982 5.412 177.822 5.628 177.822 5.884C177.822 6.18 177.97 6.416 178.266 6.592C178.57 6.768 179.126 6.912 179.934 7.024C180.934 7.16 181.65 7.392 182.082 7.72C182.514 8.048 182.73 8.488 182.73 9.04C182.73 9.472 182.59 9.848 182.31 10.168C182.038 10.488 181.666 10.732 181.194 10.9C180.722 11.076 180.198 11.164 179.622 11.164C179.022 11.164 178.494 11.072 178.038 10.888C177.582 10.712 177.222 10.464 176.958 10.144C176.702 9.832 176.558 9.476 176.526 9.076H177.738C177.778 9.372 177.962 9.628 178.29 9.844C178.626 10.052 179.082 10.156 179.658 10.156C180.194 10.156 180.638 10.06 180.99 9.868C181.342 9.668 181.518 9.416 181.518 9.112C181.518 8.824 181.354 8.596 181.026 8.428C180.706 8.252 180.146 8.112 179.346 8.008C178.402 7.88 177.71 7.656 177.27 7.336C176.83 7.008 176.61 6.548 176.61 5.956C176.61 5.564 176.738 5.216 176.994 4.912C177.258 4.608 177.614 4.376 178.062 4.216C178.51 4.048 179.014 3.964 179.574 3.964ZM192.336 11.212C191.384 11.212 190.524 10.996 189.756 10.564C188.988 10.132 188.384 9.532 187.944 8.764C187.512 7.996 187.296 7.136 187.296 6.184C187.296 5.232 187.512 4.372 187.944 3.604C188.384 2.836 188.988 2.236 189.756 1.804C190.524 1.372 191.384 1.156 192.336 1.156C193.144 1.156 193.872 1.304 194.52 1.6C195.176 1.888 195.716 2.292 196.14 2.812C196.572 3.332 196.872 3.932 197.04 4.612H195.756C195.548 3.916 195.144 3.36 194.544 2.944C193.944 2.528 193.216 2.32 192.36 2.32C191.632 2.32 190.98 2.488 190.404 2.824C189.828 3.152 189.376 3.608 189.048 4.192C188.72 4.776 188.556 5.44 188.556 6.184C188.556 6.92 188.72 7.584 189.048 8.176C189.376 8.76 189.828 9.22 190.404 9.556C190.988 9.884 191.64 10.048 192.36 10.048C192.944 10.048 193.48 9.944 193.968 9.736C194.456 9.52 194.86 9.228 195.18 8.86C195.508 8.492 195.732 8.08 195.852 7.624H197.136C196.992 8.296 196.7 8.904 196.26 9.448C195.828 9.992 195.272 10.42 194.592 10.732C193.912 11.052 193.16 11.212 192.336 11.212ZM199.919 1.084V5.176C200.095 4.864 200.383 4.584 200.783 4.336C201.191 4.088 201.679 3.964 202.247 3.964C202.783 3.964 203.259 4.088 203.675 4.336C204.099 4.584 204.427 4.936 204.659 5.392C204.891 5.84 205.007 6.368 205.007 6.976V10.996H203.771V7.192C203.771 6.504 203.611 5.976 203.291 5.608C202.979 5.232 202.543 5.044 201.983 5.044C201.591 5.044 201.239 5.156 200.927 5.38C200.615 5.596 200.367 5.888 200.183 6.256C200.007 6.624 199.919 7.02 199.919 7.444V10.996H198.683V1.084H199.919ZM209.828 11.164C209.188 11.164 208.608 11.008 208.088 10.696C207.576 10.384 207.172 9.952 206.876 9.4C206.58 8.848 206.432 8.236 206.432 7.564C206.432 6.892 206.58 6.28 206.876 5.728C207.172 5.176 207.576 4.744 208.088 4.432C208.608 4.12 209.188 3.964 209.828 3.964C210.412 3.964 210.916 4.08 211.34 4.312C211.764 4.544 212.072 4.824 212.264 5.152V4.132H213.5V10.996H212.264V9.976C212.072 10.304 211.764 10.584 211.34 10.816C210.916 11.048 210.412 11.164 209.828 11.164ZM209.936 10.072C210.392 10.072 210.796 9.964 211.148 9.748C211.508 9.524 211.788 9.224 211.988 8.848C212.188 8.464 212.288 8.036 212.288 7.564C212.288 7.092 212.188 6.668 211.988 6.292C211.788 5.908 211.508 5.608 211.148 5.392C210.796 5.168 210.392 5.056 209.936 5.056C209.488 5.056 209.088 5.164 208.736 5.38C208.392 5.596 208.124 5.896 207.932 6.28C207.74 6.664 207.644 7.092 207.644 7.564C207.644 8.036 207.74 8.464 207.932 8.848C208.124 9.232 208.392 9.532 208.736 9.748C209.088 9.964 209.488 10.072 209.936 10.072ZM215.441 10.996V1.084H216.677V10.996H215.441ZM218.617 10.996V1.084H219.853V10.996H218.617ZM224.876 11.164C224.22 11.164 223.628 11.008 223.1 10.696C222.58 10.384 222.172 9.956 221.876 9.412C221.58 8.86 221.432 8.244 221.432 7.564C221.432 6.884 221.58 6.272 221.876 5.728C222.172 5.176 222.58 4.744 223.1 4.432C223.628 4.12 224.22 3.964 224.876 3.964C225.532 3.964 226.12 4.12 226.64 4.432C227.168 4.744 227.576 5.176 227.864 5.728C228.16 6.272 228.308 6.884 228.308 7.564C228.308 7.788 228.3 7.956 228.284 8.068H222.668C222.732 8.668 222.964 9.16 223.364 9.544C223.772 9.928 224.276 10.12 224.876 10.12C225.332 10.12 225.732 10.028 226.076 9.844C226.428 9.652 226.668 9.412 226.796 9.124H228.056C227.864 9.724 227.48 10.212 226.904 10.588C226.328 10.972 225.652 11.164 224.876 11.164ZM227.096 7.06C227.024 6.452 226.788 5.96 226.388 5.584C225.988 5.2 225.484 5.008 224.876 5.008C224.268 5.008 223.764 5.2 223.364 5.584C222.964 5.96 222.732 6.452 222.668 7.06H227.096ZM231.114 4.132V5.176C231.29 4.864 231.578 4.584 231.978 4.336C232.386 4.088 232.874 3.964 233.442 3.964C233.978 3.964 234.454 4.088 234.87 4.336C235.294 4.584 235.622 4.936 235.854 5.392C236.086 5.84 236.202 6.368 236.202 6.976V10.996H234.966V7.192C234.966 6.504 234.806 5.976 234.486 5.608C234.174 5.232 233.738 5.044 233.178 5.044C232.786 5.044 232.434 5.156 232.122 5.38C231.81 5.596 231.562 5.888 231.378 6.256C231.202 6.624 231.114 7.02 231.114 7.444V10.996H229.878V4.132H231.114ZM241.312 14.08C240.384 14.08 239.64 13.848 239.08 13.384C238.528 12.928 238.188 12.348 238.06 11.644H239.32C239.4 12.044 239.604 12.372 239.932 12.628C240.268 12.884 240.728 13.012 241.312 13.012C241.944 13.012 242.452 12.812 242.836 12.412C243.228 12.02 243.424 11.492 243.424 10.828V9.88C243.232 10.208 242.924 10.488 242.5 10.72C242.076 10.952 241.572 11.068 240.988 11.068C240.348 11.068 239.768 10.912 239.248 10.6C238.736 10.296 238.332 9.876 238.036 9.34C237.74 8.796 237.592 8.192 237.592 7.528C237.592 6.864 237.74 6.26 238.036 5.716C238.332 5.172 238.736 4.744 239.248 4.432C239.768 4.12 240.348 3.964 240.988 3.964C241.572 3.964 242.076 4.08 242.5 4.312C242.924 4.544 243.232 4.824 243.424 5.152V4.132H244.66V10.84C244.66 11.464 244.516 12.02 244.228 12.508C243.948 13.004 243.552 13.388 243.04 13.66C242.536 13.94 241.96 14.08 241.312 14.08ZM241.096 10C241.552 10 241.956 9.892 242.308 9.676C242.668 9.46 242.948 9.164 243.148 8.788C243.348 8.412 243.448 7.992 243.448 7.528C243.448 7.064 243.348 6.644 243.148 6.268C242.948 5.892 242.668 5.596 242.308 5.38C241.956 5.164 241.552 5.056 241.096 5.056C240.648 5.056 240.248 5.164 239.896 5.38C239.552 5.596 239.284 5.892 239.092 6.268C238.9 6.644 238.804 7.064 238.804 7.528C238.804 7.992 238.9 8.412 239.092 8.788C239.284 9.164 239.552 9.46 239.896 9.676C240.248 9.892 240.648 10 241.096 10ZM249.685 11.164C249.029 11.164 248.437 11.008 247.909 10.696C247.389 10.384 246.981 9.956 246.685 9.412C246.389 8.86 246.241 8.244 246.241 7.564C246.241 6.884 246.389 6.272 246.685 5.728C246.981 5.176 247.389 4.744 247.909 4.432C248.437 4.12 249.029 3.964 249.685 3.964C250.341 3.964 250.929 4.12 251.449 4.432C251.977 4.744 252.385 5.176 252.673 5.728C252.969 6.272 253.117 6.884 253.117 7.564C253.117 7.788 253.109 7.956 253.093 8.068H247.477C247.541 8.668 247.773 9.16 248.173 9.544C248.581 9.928 249.085 10.12 249.685 10.12C250.141 10.12 250.541 10.028 250.885 9.844C251.237 9.652 251.477 9.412 251.605 9.124H252.865C252.673 9.724 252.289 10.212 251.713 10.588C251.137 10.972 250.461 11.164 249.685 11.164ZM251.905 7.06C251.833 6.452 251.597 5.96 251.197 5.584C250.797 5.2 250.293 5.008 249.685 5.008C249.077 5.008 248.573 5.2 248.173 5.584C247.773 5.96 247.541 6.452 247.477 7.06H251.905Z" fill="black"/>
</svg>
