<svg width="117" height="59" viewBox="0 0 117 59" fill="none" xmlns="http://www.w3.org/2000/svg">
<g filter="url(#filter0_d_168_4017)">
<rect x="1" y="1" width="114.621" height="54.9475" rx="8" fill="#01BE29" stroke="#FCFCFC" stroke-width="2"/>
<rect x="2" y="2" width="112.621" height="48.1341" rx="7" fill="#06ED57"/>
</g>
<path d="M33.931 18.8905H36.53V19.6495H37.266V25.6755H38.462V26.4345H39.221V28.5965H38.462V29.3555H37.266V35.3815H36.53V36.1405H33.931V35.3815H33.172V19.6495H33.931V18.8905ZM30.113 18.8905V19.6495H30.872V21.7885H30.113V22.5475H25.467V31.7475H30.113V32.5065H30.872V34.6455H30.113V35.4045H22.109V34.6455H21.35V19.6495H22.109V18.8905H30.113ZM49.9232 31.4715H50.5902V34.6915H49.9232V35.3585H47.9222V34.6915H47.2552V34.0245H46.5882V33.3575H45.9212V32.6905H44.4492V33.3575H43.7822V34.0245H43.1152V34.6915H42.4482V35.3585H40.4472V34.6915H39.7802V31.4715H40.4472V30.8045H41.1142V30.1375H41.7812V29.4705H42.4482V28.8035H43.0922V19.6725H43.8742V18.8905H46.4962V19.6725H47.2782V28.8035H47.9222V29.4705H48.5892V30.1375H49.2562V30.8045H49.9232V31.4715ZM55.9492 18.8905V19.6495H56.7082V35.3815H55.9492V36.1405H53.3272V35.3815H52.5682V19.6495H53.3272V18.8905H55.9492ZM64.6387 32.1155V27.8605H64.1097V27.3315H63.3507V27.8605H62.8217V32.1155H63.3507V32.6445H64.1097V32.1155H64.6387ZM71.1937 18.8905H73.7927V19.6495H74.5287V25.6755H75.7247V26.4345H76.4837V28.5965H75.7247V29.3555H74.5287V35.3815H73.7927V36.1405H71.1937V35.3815H70.4347V19.6495H71.1937V18.8905ZM65.8347 19.8105H68.5717V20.5695H69.3307V22.7085H68.5717V23.4675H58.9577V22.7085H58.1987V20.5695H58.9577V19.8105H61.6717V18.7525H62.4537V18.0855H65.0527V18.7525H65.8347V19.8105ZM68.0657 26.3425H68.8017V33.6105H68.0657V34.3465H67.3297V35.0825H66.5937V35.8185H60.8437V35.0825H60.1077V34.3465H59.3717V33.6105H58.6587V26.3425H59.3717V25.6065H60.1077V24.8705H60.8437V24.1575H66.5937V24.8705H67.3297V25.6065H68.0657V26.3425ZM93.2119 18.8905V19.6495H93.9709V35.3815H93.2119V36.1405H90.5899V35.3815H89.8309V19.6495H90.5899V18.8905H93.2119ZM78.2389 18.8905H86.0129V19.6495H86.7719V34.6455H86.0129V35.4045H83.4139V34.6455H82.6549V22.5475H78.2389V21.7885H77.4799V19.6495H78.2389V18.8905Z" fill="white"/>
<defs>
<filter id="filter0_d_168_4017" x="0" y="0" width="116.621" height="58.9475" filterUnits="userSpaceOnUse" color-interpolation-filters="sRGB">
<feFlood flood-opacity="0" result="BackgroundImageFix"/>
<feColorMatrix in="SourceAlpha" type="matrix" values="0 0 0 0 0 0 0 0 0 0 0 0 0 0 0 0 0 0 127 0" result="hardAlpha"/>
<feOffset dy="2"/>
<feComposite in2="hardAlpha" operator="out"/>
<feColorMatrix type="matrix" values="0 0 0 0 0 0 0 0 0 0 0 0 0 0 0 0 0 0 0.25 0"/>
<feBlend mode="normal" in2="BackgroundImageFix" result="effect1_dropShadow_168_4017"/>
<feBlend mode="normal" in="SourceGraphic" in2="effect1_dropShadow_168_4017" result="shape"/>
</filter>
</defs>
</svg>
