<svg width="134" height="53" viewBox="0 0 134 53" fill="none" xmlns="http://www.w3.org/2000/svg">
<g filter="url(#filter0_d_168_4028)">
<rect x="1" y="1" width="132" height="48.9475" rx="8" fill="#007991" stroke="#FCFCFC" stroke-width="2"/>
<rect x="2" y="2" width="130" height="42.6796" rx="7" fill="#00B1D3"/>
</g>
<path d="M53.2482 24.824V27.607H58.5842V28.366H59.3662V30.505H58.5842V31.264H49.9362V30.505H49.1542V21.949H49.9362V21.19H55.2492V18.407H49.9362V17.648H49.1542V15.509H49.9362V14.75H58.5842V15.509H59.3662V24.065H58.5842V24.824H53.2482ZM64.8862 14.75V15.509H65.6452V31.241H64.8862V32H62.2642V31.241H61.5052V15.509H62.2642V14.75H64.8862ZM70.0797 15.509H70.8617V14.75H72.9777V15.509H73.7367V18.43H74.4037V19.097H74.9787V19.741H75.6227V20.408H76.2437V23.145H75.6227V23.72H73.6677V23.145H72.9547V22.57H72.2647V22.018H71.5287V22.547H71.5057V22.57H70.8387V23.145H70.1257V23.72H68.1707V23.145H67.5727V20.408H68.1707V19.741H68.8147V19.097H69.4357V18.43H70.0797V15.509ZM78.6587 26.48H79.8087V26.986H80.8667V27.469H81.9247V27.975H82.9597V28.458H83.9947V29.033H84.7077V31.31H83.9947V32H81.6947V31.54H80.6827V31.057H79.6707V30.574H78.6587V30.068H77.5547V29.539H75.6457V30.068H74.5187V30.574H73.5067V31.057H72.4947V31.54H71.5057V32H69.1827V31.31H68.4697V29.033H69.1827V28.458H70.2177V27.975H71.2527V27.469H72.3107V26.986H73.3917V26.48H74.5417V25.468H75.2547V24.755H77.9687V25.468H78.6587V26.48ZM76.8877 19.557H75.8297V18.867H75.1167V17.096H75.8297V16.429H76.8877V15.394H77.5777V14.75H79.6707V15.394H80.3607V23.191H79.6707V23.835H77.5777V23.191H76.8877V19.557ZM84.5007 23.191H83.8107V23.835H81.7177V23.191H81.0277V15.394H81.7177V14.75H83.8107V15.394H84.5007V23.191Z" fill="white"/>
<defs>
<filter id="filter0_d_168_4028" x="0" y="0" width="134" height="52.9475" filterUnits="userSpaceOnUse" color-interpolation-filters="sRGB">
<feFlood flood-opacity="0" result="BackgroundImageFix"/>
<feColorMatrix in="SourceAlpha" type="matrix" values="0 0 0 0 0 0 0 0 0 0 0 0 0 0 0 0 0 0 127 0" result="hardAlpha"/>
<feOffset dy="2"/>
<feComposite in2="hardAlpha" operator="out"/>
<feColorMatrix type="matrix" values="0 0 0 0 0 0 0 0 0 0 0 0 0 0 0 0 0 0 0.25 0"/>
<feBlend mode="normal" in2="BackgroundImageFix" result="effect1_dropShadow_168_4028"/>
<feBlend mode="normal" in="SourceGraphic" in2="effect1_dropShadow_168_4028" result="shape"/>
</filter>
</defs>
</svg>
