<svg width="134" height="53" viewBox="0 0 134 53" fill="none" xmlns="http://www.w3.org/2000/svg">
<g filter="url(#filter0_d_168_4039)">
<rect x="1" y="1" width="132" height="48.9475" rx="8" fill="#007991" stroke="#FCFCFC" stroke-width="2"/>
<rect x="2" y="2" width="130" height="42.6796" rx="7" fill="#00B1D3"/>
</g>
<path d="M59.2683 24.709H64.3973V25.238H64.9493V28.941H64.3973V29.447H53.5413V29.815H64.3973V30.344H64.9493V31.494H64.3973V32H49.9993V31.494H49.4473V27.814H49.9993V27.285H60.8323V26.894H49.9993V26.388H49.4473V25.238H49.9993V24.709H55.1283V24.341H49.2633V23.789H48.6883V22.432H49.2633V21.88H65.1333V22.432H65.7083V23.789H65.1333V24.341H59.2683V24.709ZM55.1513 15.279V14.497H55.9103V13.899H58.5323V14.497H59.2683V15.279H64.6043V15.9H65.2483V17.211H64.6043V17.832H62.9253V18.269H63.6383V18.706H64.3513V19.143H64.8573V20.891H64.3513V21.42H61.7063V20.983H60.7403V20.546H60.0273V20.086H59.0843V19.649H58.1183V19.189H56.2783V19.649H55.3353V20.086H54.3693V20.546H53.6563V20.983H52.7133V21.42H50.0453V20.891H49.5393V19.143H50.0453V18.706H50.7813V18.269H51.4943V17.832H49.7923V17.211H49.1483V15.9H49.7923V15.279H55.1513ZM73.5238 18.913H71.3388V19.948H73.5238V18.913ZM71.8218 28.895V29.401H82.6088V30.022H83.2298V31.379H82.6088V32H68.3488V31.379H67.7278V26.94H68.3488V26.319H79.1128V25.813H68.3488V25.192H67.7278V23.835H68.3488V23.214H82.6088V23.835H83.2298V28.274H82.6088V28.895H71.8218ZM79.8948 14.75H82.4938V15.509H83.2298V16.682H84.4258V17.441H85.1848V19.488H84.4258V20.247H83.2298V21.65H82.4938V22.409H79.8948V21.65H79.1358V15.509H79.8948V14.75ZM76.7438 14.75V15.509H77.5258V21.627H76.7438V22.386H68.0728V21.627H67.3138V15.509H68.0728V14.75H70.6028V15.509H71.3848V16.452H73.4778V15.509H74.2368V14.75H76.7438Z" fill="white"/>
<defs>
<filter id="filter0_d_168_4039" x="0" y="0" width="134" height="52.9475" filterUnits="userSpaceOnUse" color-interpolation-filters="sRGB">
<feFlood flood-opacity="0" result="BackgroundImageFix"/>
<feColorMatrix in="SourceAlpha" type="matrix" values="0 0 0 0 0 0 0 0 0 0 0 0 0 0 0 0 0 0 127 0" result="hardAlpha"/>
<feOffset dy="2"/>
<feComposite in2="hardAlpha" operator="out"/>
<feColorMatrix type="matrix" values="0 0 0 0 0 0 0 0 0 0 0 0 0 0 0 0 0 0 0.25 0"/>
<feBlend mode="normal" in2="BackgroundImageFix" result="effect1_dropShadow_168_4039"/>
<feBlend mode="normal" in="SourceGraphic" in2="effect1_dropShadow_168_4039" result="shape"/>
</filter>
</defs>
</svg>
