<svg width="118" height="59" viewBox="0 0 118 59" fill="none" xmlns="http://www.w3.org/2000/svg">
<g filter="url(#filter0_d_168_4023)">
<rect x="1.55554" y="1" width="114.621" height="54.9475" rx="8" fill="#ED0F29" stroke="#FCFCFC" stroke-width="2"/>
<rect x="2.55554" y="2" width="112.621" height="48.1341" rx="7" fill="#FE4B60"/>
</g>
<path d="M44.3887 18.8905H46.9877V19.6495H47.7237V25.6755H48.9197V26.4345H49.6787V28.5965H48.9197V29.3555H47.7237V35.3815H46.9877V36.1405H44.3887V35.3815H43.6297V19.6495H44.3887V18.8905ZM41.2607 35.4045H32.5667V34.6455H31.8077V19.6495H32.5667V18.8905H35.1657V19.6495H35.9247V31.7475H41.2607V32.5065H42.0197V34.6455H41.2607V35.4045ZM63.2559 18.8905H65.8549V19.6495H66.5909V25.6755H67.7869V26.4345H68.5459V28.5965H67.7869V29.3555H66.5909V35.3815H65.8549V36.1405H63.2559V35.3815H62.4969V19.6495H63.2559V18.8905ZM51.4339 18.8905H59.2079V19.6495H59.9669V34.6455H59.2079V35.4045H56.6089V34.6455H55.8499V22.5475H51.4339V21.7885H50.6749V19.6495H51.4339V18.8905ZM85.2741 18.8905V19.6495H86.0331V35.3815H85.2741V36.1405H82.6521V35.3815H81.8931V19.6495H82.6521V18.8905H85.2741ZM70.3011 18.8905H78.0751V19.6495H78.8341V34.6455H78.0751V35.4045H75.4761V34.6455H74.7171V22.5475H70.3011V21.7885H69.5421V19.6495H70.3011V18.8905Z" fill="white"/>
<defs>
<filter id="filter0_d_168_4023" x="0.555542" y="0" width="116.621" height="58.9475" filterUnits="userSpaceOnUse" color-interpolation-filters="sRGB">
<feFlood flood-opacity="0" result="BackgroundImageFix"/>
<feColorMatrix in="SourceAlpha" type="matrix" values="0 0 0 0 0 0 0 0 0 0 0 0 0 0 0 0 0 0 127 0" result="hardAlpha"/>
<feOffset dy="2"/>
<feComposite in2="hardAlpha" operator="out"/>
<feColorMatrix type="matrix" values="0 0 0 0 0 0 0 0 0 0 0 0 0 0 0 0 0 0 0.25 0"/>
<feBlend mode="normal" in2="BackgroundImageFix" result="effect1_dropShadow_168_4023"/>
<feBlend mode="normal" in="SourceGraphic" in2="effect1_dropShadow_168_4023" result="shape"/>
</filter>
</defs>
</svg>
