<svg width="312" height="59" viewBox="0 0 312 59" fill="none" xmlns="http://www.w3.org/2000/svg">
<g filter="url(#filter0_d_152_3981)">
<rect x="1" y="1" width="310" height="54.9475" rx="8" fill="#003540" stroke="#FCFCFC" stroke-width="2"/>
<rect x="2" y="2" width="308" height="48.1341" rx="7" fill="#00B1D3"/>
</g>
<path d="M144.699 24.15V23.8H144.174V23.425H140.549V23.8H140.074V24.15H140.549V24.525H144.174V24.15H144.699ZM137.649 31.425H152.999V32.175H153.749V36.25H152.999V37H150.024V36.25H149.274V34.9H137.649V34.15H136.899V32.175H137.649V31.425ZM150.374 18.25H152.949V19.075H153.749V22.375H154.799V23.2H155.624V25.425H154.799V26.25H153.749V29.875H152.949V30.7H150.374V29.875H149.549V19.075H150.374V18.25ZM140.224 18.95V18.05H141.074V17.325H143.924V18.05H144.774V18.95H147.849V19.65H148.524V21.2H147.849V21.9H146.874V22.3H147.449V22.825H148.024V25.375H147.449V25.875H146.874V26.4H146.299V26.9H144.474V27.625H148.174V28.325H148.874V30H148.174V30.7H136.899V30H136.199V28.325H136.899V27.625H140.349V26.9H138.474V26.4H137.899V25.875H137.324V25.375H136.749V22.825H137.324V22.3H137.899V21.9H136.899V21.2H136.224V19.65H136.899V18.95H140.224ZM173.556 37H158.356V36.175H157.531V30.875H158.356V30.05H161.181V30.875H162.006V33.025H173.556V33.85H174.381V36.175H173.556V37ZM173.556 18.25V19.075H174.381V28.175H173.556V29H170.706V28.175H169.881V19.075H170.706V18.25H173.556ZM163.756 24.475V22.8H163.056V22.2H161.481V22.8H160.781V24.475H161.481V25.05H163.056V24.475H163.756ZM167.006 20.725H167.831V26.525H167.006V27.375H166.181V28.2H165.356V29.025H159.206V28.2H158.381V27.375H157.556V26.525H156.706V20.725H157.556V19.9H158.381V19.075H159.206V18.25H165.356V19.075H166.181V19.9H167.006V20.725Z" fill="white"/>
<defs>
<filter id="filter0_d_152_3981" x="0" y="0" width="312" height="58.9475" filterUnits="userSpaceOnUse" color-interpolation-filters="sRGB">
<feFlood flood-opacity="0" result="BackgroundImageFix"/>
<feColorMatrix in="SourceAlpha" type="matrix" values="0 0 0 0 0 0 0 0 0 0 0 0 0 0 0 0 0 0 127 0" result="hardAlpha"/>
<feOffset dy="2"/>
<feComposite in2="hardAlpha" operator="out"/>
<feColorMatrix type="matrix" values="0 0 0 0 0 0 0 0 0 0 0 0 0 0 0 0 0 0 0.25 0"/>
<feBlend mode="normal" in2="BackgroundImageFix" result="effect1_dropShadow_152_3981"/>
<feBlend mode="normal" in="SourceGraphic" in2="effect1_dropShadow_152_3981" result="shape"/>
</filter>
</defs>
</svg>
