<svg width="250" height="59" viewBox="0 0 250 59" fill="none" xmlns="http://www.w3.org/2000/svg">
<g filter="url(#filter0_d_141_3950)">
<rect x="1" y="1" width="247.169" height="54.9475" rx="8" fill="#01BE29" stroke="#FCFCFC" stroke-width="2"/>
<rect x="2" y="2" width="245.169" height="48.1341" rx="7" fill="#06ED57"/>
</g>
<path d="M68.0015 25.6985V19.6495H68.7605V18.8905H70.9455V19.6495H71.7045V35.3815H70.9455V36.1405H68.7605V35.3815H68.0015V29.3325H67.1505V35.3815H66.3915V36.1405H64.2065V35.3815H63.4475V19.6495H64.2065V18.8905H66.3915V19.6495H67.1505V25.6985H68.0015ZM61.9065 35.4045H55.5125V34.6455H54.7535V19.6495H55.5125V18.8905H57.8815V19.6495H58.6405V31.7475H61.9065V32.5065H62.6655V34.6455H61.9065V35.4045ZM81.8592 25.0315V25.6295H85.9072V26.2965H86.5972V27.7685H85.9072V28.4355H78.9152V27.7685H78.2252V22.9155H78.9152V22.2485H82.9402V21.6965H78.9152V21.0295H78.2252V19.5575H78.9152V18.8905H85.9072V19.5575H86.5972V24.3645H85.9072V25.0315H81.8592ZM91.7032 22.0645V19.5575H92.4622V18.8905H94.4172V19.5575H95.1762V27.7685H94.4172V28.4125H92.4622V27.7685H91.7032V25.3535H90.9212V27.7685H90.1622V28.4125H88.2072V27.7685H87.4482V19.5575H88.2072V18.8905H90.1622V19.5575H90.9212V22.0645H91.7032ZM90.6682 33.2425V32.8745H91.1972V32.4835H90.6682V32.0925H83.4922V32.4835H82.9402V32.8745H83.4922V33.2425H90.6682ZM92.8302 36.1405H81.2612V35.4505H80.5022V34.5995H79.7432V33.7945H79.1682V31.5175H79.7432V30.7125H80.5022V29.8615H81.2612V29.1945H92.8302V29.8615H93.6122V30.7125H94.3712V31.5175H94.9462V33.7945H94.3712V34.5995H93.6122V35.4505H92.8302V36.1405ZM102.256 25.7675H97.3797V25.0085H96.6207V23.4445H97.3797V22.6855H102.256V21.9725H97.3797V21.2135H96.6207V19.6495H97.3797V18.8905H105.614V19.6495H106.373V26.8255H105.614V27.5845H103.015V26.8255H102.256V25.7675ZM112.123 18.8905V19.6495H112.882V26.8715H112.123V27.6305H109.501V26.8715H108.742V19.6495H109.501V18.8905H112.123ZM108.834 33.0355V32.5755H109.363V32.1615H108.834V31.6785H101.888V32.1615H101.336V32.5755H101.888V33.0355H108.834ZM110.996 36.1405H99.6567V35.4045H98.8977V34.5765H98.1387V33.7025H97.5637V30.9885H98.1387V30.1145H98.8977V29.2865H99.6567V28.5735H110.996V29.2865H111.778V30.1145H112.537V30.9885H113.112V33.7025H112.537V34.5765H111.778V35.4045H110.996V36.1405ZM131.259 25.8825V24.4565H124.543V25.8825H131.259ZM129.971 32.0465H135.652V32.8055H136.411V34.9215H135.652V35.6805H120.15V34.9215H119.391V32.8055H120.15V32.0465H125.831V29.4935H121.139V28.7345H120.38V19.6495H121.139V18.8905H123.761V19.6495H124.543V20.7075H131.259V19.6495H132.018V18.8905H134.64V19.6495H135.422V28.7345H134.64V29.4935H129.971V32.0465ZM142.11 28.9645V31.7475H146.756V32.5065H147.538V34.6455H146.756V35.4045H138.798V34.6455H138.016V26.0895H138.798V25.3305H143.421V22.5475H138.798V21.7885H138.016V19.6495H138.798V18.8905H146.756V19.6495H147.538V28.2055H146.756V28.9645H142.11ZM150.367 29.3325H148.803V28.5735H148.021V26.4345H148.803V25.6985H150.367V19.6495H151.126V18.8905H153.748V19.6495H154.507V35.3815H153.748V36.1405H151.126V35.3815H150.367V29.3325ZM168.993 18.8905H171.592V19.6495H172.328V25.6755H173.524V26.4345H174.283V28.5965H173.524V29.3555H172.328V35.3815H171.592V36.1405H168.993V35.3815H168.234V19.6495H168.993V18.8905ZM157.171 18.8905H164.945V19.6495H165.704V34.6455H164.945V35.4045H162.346V34.6455H161.587V22.5475H157.171V21.7885H156.412V19.6495H157.171V18.8905ZM191.011 18.8905V19.6495H191.77V35.3815H191.011V36.1405H188.389V35.3815H187.63V19.6495H188.389V18.8905H191.011ZM176.038 18.8905H183.812V19.6495H184.571V34.6455H183.812V35.4045H181.213V34.6455H180.454V22.5475H176.038V21.7885H175.279V19.6495H176.038V18.8905Z" fill="white"/>
<defs>
<filter id="filter0_d_141_3950" x="0" y="0" width="249.169" height="58.9475" filterUnits="userSpaceOnUse" color-interpolation-filters="sRGB">
<feFlood flood-opacity="0" result="BackgroundImageFix"/>
<feColorMatrix in="SourceAlpha" type="matrix" values="0 0 0 0 0 0 0 0 0 0 0 0 0 0 0 0 0 0 127 0" result="hardAlpha"/>
<feOffset dy="2"/>
<feComposite in2="hardAlpha" operator="out"/>
<feColorMatrix type="matrix" values="0 0 0 0 0 0 0 0 0 0 0 0 0 0 0 0 0 0 0.25 0"/>
<feBlend mode="normal" in2="BackgroundImageFix" result="effect1_dropShadow_141_3950"/>
<feBlend mode="normal" in="SourceGraphic" in2="effect1_dropShadow_141_3950" result="shape"/>
</filter>
</defs>
</svg>
