<svg width="226" height="39" viewBox="0 0 226 39" fill="none" xmlns="http://www.w3.org/2000/svg">
<rect width="226" height="39" rx="10" fill="#782984"/>
<path d="M47.7403 22.292V15.776H47.2363V15.344H46.4803V15.776H45.9943V22.292H46.4803V22.706H47.2363V22.292H47.7403ZM50.2783 14.282H50.8723V23.768H50.2783V24.38H49.7023V24.974H49.1263V25.568H44.6263V24.974H44.0323V24.38H43.4563V23.768H42.8623V14.282H43.4563V13.688H44.0323V13.094H44.6263V12.5H49.1263V13.094H49.7023V13.688H50.2783V14.282ZM52.7263 12.5H54.7603V13.094H55.3363V17.81H56.2723V18.404H56.8663V20.096H56.2723V20.69H55.3363V25.406H54.7603V26H52.7263V25.406H52.1323V13.094H52.7263V12.5ZM67.3479 20.672V25.406H66.7539V26H65.0439V25.406H64.4499V13.094H65.0439V12.5H66.7539V13.094H67.3479V17.828H68.0139V13.094H68.6079V12.5H70.3179V13.094H70.9119V25.406H70.3179V26H68.6079V25.406H68.0139V20.672H67.3479ZM60.5799 20.384V22.562H63.2259V23.156H63.8379V24.83H63.2259V25.424H58.2579V24.83H57.6459V18.134H58.2579V17.54H60.7959V15.362H58.2579V14.768H57.6459V13.094H58.2579V12.5H63.1359V13.094H63.7479V19.79H63.1359V20.384H60.5799ZM80.5115 22.796H84.9575V23.39H85.5515V25.046H84.9575V25.64H72.8255V25.046H72.2315V23.39H72.8255V22.796H77.2715V21.554H73.5275V20.96H72.9155V16.298H73.5275V15.704H81.6455V15.182H73.5275V14.588H72.9155V13.094H73.5275V12.5H84.2555V13.094H84.8675V17.774H84.2555V18.368H76.1195V18.872H84.2555V19.466H84.8675V20.96H84.2555V21.554H80.5115V22.796ZM86.664 25.406V23.39H87.258V22.796H93.81V23.39H94.404V25.406H93.81V26H87.258V25.406H86.664ZM107.494 26H96.5502V25.406H95.9562V21.95H96.5502V21.356H98.5842V21.95H99.1782V23.228H107.494V23.822H108.088V25.406H107.494V26ZM100.924 18.26V17.738H100.51V17.468H98.9262V17.738H98.5302V18.26H98.9262V18.548H100.51V18.26H100.924ZM105.478 12.5H107.512V13.094H108.088V15.2H109.024V15.794H109.618V17.45H109.024V18.044H108.088V20.132H107.512V20.726H105.478V20.132H104.884V13.094H105.478V12.5ZM97.0182 15.578H95.9742V14.984H95.3802V13.598H95.9742V13.004H98.2782V12.356H98.8902V11.834H100.582V12.356H101.194V13.004H103.462V13.598H104.056V14.984H103.462V15.578H102.436V16.082H102.904V16.568H103.372V17.036H103.822V19.304H103.372V19.79H102.904V20.258H102.436V20.744H97.0182V20.258H96.5502V19.79H96.0822V19.304H95.6142V17.036H96.0822V16.568H96.5502V16.082H97.0182V15.578ZM110.254 25.406V23.39H110.848V22.796H117.4V23.39H117.994V25.406H117.4V26H110.848V25.406H110.254ZM131.084 26H120.14V25.406H119.546V21.59H120.14V20.996H122.174V21.59H122.768V23.138H131.084V23.732H131.678V25.406H131.084V26ZM123.632 18.602H119.816V18.008H119.222V16.514H119.816V15.92H123.632V15.182H119.816V14.588H119.222V13.094H119.816V12.5H126.26V13.094H126.854V19.61H126.26V20.204H124.226V19.61H123.632V18.602ZM129.068 12.5H131.102V13.094H131.678V14.93H132.614V15.524H133.208V17.216H132.614V17.81H131.678V19.646H131.102V20.24H129.068V19.646H128.474V13.094H129.068V12.5ZM133.844 25.406V23.39H134.438V22.796H140.99V23.39H141.584V25.406H140.99V26H134.438V25.406H133.844ZM152.298 17.594H151.164V17.054H150.606V15.506H151.164V14.984H152.298V13.094H152.892V12.5H154.944V13.094H155.538V19.646H154.944V20.24H152.892V19.646H152.298V17.594ZM154.944 26H144V25.406H143.406V21.59H144V20.996H146.034V21.59H146.628V23.138H154.944V23.732H155.538V25.406H154.944V26ZM144.81 15.344H143.154V14.75H142.56V13.094H143.154V12.5H150.282V13.094H150.876V14.75H150.282V15.344H148.626V15.974H149.148V16.478H149.652V17H150.174V17.504H150.678V19.7H150.174V20.204H148.626V19.7H148.122V19.178H147.6V18.674H147.096V18.17H146.34V18.674H145.836V19.178H145.314V19.7H144.81V20.204H143.262V19.7H142.758V17.504H143.262V17H143.784V16.478H144.288V15.974H144.81V15.344ZM169.34 12.5V13.094H169.934V19.646H169.34V20.24H167.288V19.646H166.694V13.094H167.288V12.5H169.34ZM169.34 26H158.396V25.406H157.802V21.59H158.396V20.996H160.43V21.59H161.024V23.138H169.34V23.732H169.934V25.406H169.34V26ZM159.206 15.344H157.55V14.75H156.956V13.094H157.55V12.5H164.678V13.094H165.272V14.75H164.678V15.344H163.022V15.974H163.544V16.478H164.048V17H164.57V17.504H165.074V19.7H164.57V20.204H163.022V19.7H162.518V19.178H161.996V18.674H161.492V18.17H160.736V18.674H160.232V19.178H159.71V19.7H159.206V20.204H157.658V19.7H157.154V17.504H157.658V17H158.18V16.478H158.684V15.974H159.206V15.344ZM175.835 12.536H176.465V14.192H175.835V14.822H175.187V15.488H174.485V23.048H175.187V23.732H175.835V24.398H176.465V26H175.835V26.558H173.171V26H172.505V25.262H171.857V24.398H171.281V14.192H171.857V13.292H172.505V12.536H173.171V11.96H175.835V12.536ZM177.852 12.536V11.96H180.498V12.536H181.164V13.292H181.812V14.192H182.388V24.398H181.812V25.262H181.164V26H180.498V26.558H177.852V26H177.222V24.398H177.852V23.732H178.5V23.048H179.184V15.488H178.5V14.822H177.852V14.192H177.222V12.536H177.852Z" fill="white"/>
</svg>
