<svg width="226" height="39" viewBox="0 0 226 39" fill="none" xmlns="http://www.w3.org/2000/svg">
<rect width="226" height="39" rx="10" fill="#F09101"/>
<path d="M56.2531 15.29H54.2371V15.794H53.8051V16.37H54.2371V16.874H56.2531V16.37H56.6671V15.794H56.2531V15.29ZM61.3291 12.5H63.2731V13.094H63.8491V25.406H63.2731V26H61.3291V25.406H60.7351V13.094H61.3291V12.5ZM52.7431 13.076V12.482H57.7291V13.076H58.3411V13.67H58.9351V14.264H59.5291V17.864H58.9351V18.458H58.3411V19.052H57.7291V19.664H52.7431V19.052H52.1491V18.458H51.5551V17.864H50.9611V14.264H51.5551V13.67H52.1491V13.076H52.7431ZM53.6251 23.138H51.1771V22.544H50.5831V20.888H51.1771V20.294H59.2951V20.888H59.8891V22.544H59.2951V23.138H56.8651V25.406H56.2711V26H54.2191V25.406H53.6251V23.138ZM73.6287 22.796H78.0747V23.39H78.6687V25.046H78.0747V25.64H65.9427V25.046H65.3487V23.39H65.9427V22.796H70.3887V21.554H66.6447V20.96H66.0327V16.298H66.6447V15.704H74.7627V15.182H66.6447V14.588H66.0327V13.094H66.6447V12.5H77.3727V13.094H77.9847V17.774H77.3727V18.368H69.2367V18.872H77.3727V19.466H77.9847V20.96H77.3727V21.554H73.6287V22.796ZM79.7812 25.406V23.39H80.3752V22.796H86.9272V23.39H87.5212V25.406H86.9272V26H80.3752V25.406H79.7812ZM100.611 26H89.6674V25.406H89.0734V21.95H89.6674V21.356H91.7014V21.95H92.2954V23.228H100.611V23.822H101.205V25.406H100.611V26ZM94.0414 18.26V17.738H93.6274V17.468H92.0434V17.738H91.6474V18.26H92.0434V18.548H93.6274V18.26H94.0414ZM98.5954 12.5H100.629V13.094H101.205V15.2H102.141V15.794H102.735V17.45H102.141V18.044H101.205V20.132H100.629V20.726H98.5954V20.132H98.0014V13.094H98.5954V12.5ZM90.1354 15.578H89.0914V14.984H88.4974V13.598H89.0914V13.004H91.3954V12.356H92.0074V11.834H93.6994V12.356H94.3114V13.004H96.5794V13.598H97.1734V14.984H96.5794V15.578H95.5534V16.082H96.0214V16.568H96.4894V17.036H96.9394V19.304H96.4894V19.79H96.0214V20.258H95.5534V20.744H90.1354V20.258H89.6674V19.79H89.1994V19.304H88.7314V17.036H89.1994V16.568H89.6674V16.082H90.1354V15.578ZM103.371 25.406V23.39H103.965V22.796H110.517V23.39H111.111V25.406H110.517V26H103.965V25.406H103.371ZM124.201 26H113.257V25.406H112.663V21.59H113.257V20.996H115.291V21.59H115.885V23.138H124.201V23.732H124.795V25.406H124.201V26ZM116.749 18.602H112.933V18.008H112.339V16.514H112.933V15.92H116.749V15.182H112.933V14.588H112.339V13.094H112.933V12.5H119.377V13.094H119.971V19.61H119.377V20.204H117.343V19.61H116.749V18.602ZM122.185 12.5H124.219V13.094H124.795V14.93H125.731V15.524H126.325V17.216H125.731V17.81H124.795V19.646H124.219V20.24H122.185V19.646H121.591V13.094H122.185V12.5ZM126.961 25.406V23.39H127.555V22.796H134.107V23.39H134.701V25.406H134.107V26H127.555V25.406H126.961ZM145.415 17.594H144.281V17.054H143.723V15.506H144.281V14.984H145.415V13.094H146.009V12.5H148.061V13.094H148.655V19.646H148.061V20.24H146.009V19.646H145.415V17.594ZM148.061 26H137.117V25.406H136.523V21.59H137.117V20.996H139.151V21.59H139.745V23.138H148.061V23.732H148.655V25.406H148.061V26ZM137.927 15.344H136.271V14.75H135.677V13.094H136.271V12.5H143.399V13.094H143.993V14.75H143.399V15.344H141.743V15.974H142.265V16.478H142.769V17H143.291V17.504H143.795V19.7H143.291V20.204H141.743V19.7H141.239V19.178H140.717V18.674H140.213V18.17H139.457V18.674H138.953V19.178H138.431V19.7H137.927V20.204H136.379V19.7H135.875V17.504H136.379V17H136.901V16.478H137.405V15.974H137.927V15.344ZM162.458 12.5V13.094H163.052V19.646H162.458V20.24H160.406V19.646H159.812V13.094H160.406V12.5H162.458ZM162.458 26H151.514V25.406H150.92V21.59H151.514V20.996H153.548V21.59H154.142V23.138H162.458V23.732H163.052V25.406H162.458V26ZM152.324 15.344H150.668V14.75H150.074V13.094H150.668V12.5H157.796V13.094H158.39V14.75H157.796V15.344H156.14V15.974H156.662V16.478H157.166V17H157.688V17.504H158.192V19.7H157.688V20.204H156.14V19.7H155.636V19.178H155.114V18.674H154.61V18.17H153.854V18.674H153.35V19.178H152.828V19.7H152.324V20.204H150.776V19.7H150.272V17.504H150.776V17H151.298V16.478H151.802V15.974H152.324V15.344ZM168.952 12.536H169.582V14.192H168.952V14.822H168.304V15.488H167.602V23.048H168.304V23.732H168.952V24.398H169.582V26H168.952V26.558H166.288V26H165.622V25.262H164.974V24.398H164.398V14.192H164.974V13.292H165.622V12.536H166.288V11.96H168.952V12.536ZM170.969 12.536V11.96H173.615V12.536H174.281V13.292H174.929V14.192H175.505V24.398H174.929V25.262H174.281V26H173.615V26.558H170.969V26H170.339V24.398H170.969V23.732H171.617V23.048H172.301V15.488H171.617V14.822H170.969V14.192H170.339V12.536H170.969Z" fill="white"/>
</svg>
