<svg width="226" height="39" viewBox="0 0 226 39" fill="none" xmlns="http://www.w3.org/2000/svg">
<rect width="226" height="39" rx="10" fill="#E6001D"/>
<path d="M37.7989 15.344H32.9029V15.848H32.4709V17.09H32.9029V17.594H37.7989V17.09H38.2129V15.848H37.7989V15.344ZM36.9529 22.796H41.3989V23.39H41.9929V25.046H41.3989V25.64H29.2669V25.046H28.6729V23.39H29.2669V22.796H33.7129V20.438H31.1209V19.826H30.5269V19.232H29.9329V18.638H29.3389V14.282H29.9329V13.688H30.5269V13.094H31.1209V12.5H39.5269V13.094H40.1389V13.688H40.7329V14.282H41.3269V18.638H40.7329V19.232H40.1389V19.826H39.5269V20.438H36.9529V22.796ZM43.0694 21.518V20.348H43.5734V19.826H55.8854V20.348H56.3894V21.518H55.8854V22.04H43.5734V21.518H43.0694ZM46.8134 17V17.414H55.2194V17.918H55.7414V18.962H55.2194V19.466H44.1314V18.962H43.6094V15.47H44.1314V14.966H52.5194V14.534H44.1314V14.03H43.6094V12.986H44.1314V12.482H55.2194V12.986H55.7414V16.496H55.2194V17H46.8134ZM55.2014 26H44.2574V25.406H43.6634V22.85H44.2574V22.346H46.2914V22.85H46.8854V23.408H55.2014V24.002H55.7954V25.406H55.2014V26ZM58.6539 21.446H69.5979V22.04H70.1919V25.406H69.5979V26H67.5639V25.406H66.9699V23.948H58.6539V23.354H58.0599V22.04H58.6539V21.446ZM65.7459 18.584H70.2819V19.088H70.7859V20.474H70.2819V20.978H57.9699V20.474H57.4659V19.088H57.9699V18.584H62.5059V17.504H62.0379V17.144H61.5519V16.802H61.2639V17.144H60.7779V17.504H60.3099V17.864H59.8959V18.206H58.6899V17.864H58.2759V15.866H58.6899V15.524H59.0679V15.164H59.4639V14.804H58.3299V14.3H57.8259V13.022H58.3299V12.5H69.9219V13.022H70.4259V14.3H69.9219V14.804H68.7879V15.164H69.1839V15.524H69.5799V15.866H69.9759V17.864H69.5799V18.206H68.3739V17.864H67.9599V17.504H67.4919V17.144H67.0059V16.802H66.6999V17.144H66.2139V17.504H65.7459V18.584ZM64.9179 14.804H63.3519V15.164H63.7479V15.524H64.5219V15.164H64.9179V14.804ZM80.9884 15.344H76.0924V15.848H75.6604V17.45H76.0924V17.954H80.9884V17.45H81.4024V15.848H80.9884V15.344ZM71.8624 25.046V23.39H72.4564V22.796H84.5884V23.39H85.1824V25.046H84.5884V25.64H72.4564V25.046H71.8624ZM74.3104 13.094V12.5H82.7164V13.094H83.3284V13.688H83.9224V14.282H84.5164V18.998H83.9224V19.592H83.3284V20.186H82.7164V20.798H74.3104V20.186H73.7164V19.592H73.1224V18.998H72.5284V14.282H73.1224V13.688H73.7164V13.094H74.3104ZM94.5389 22.796H98.9849V23.39H99.5789V25.046H98.9849V25.64H86.8529V25.046H86.2589V23.39H86.8529V22.796H91.2989V21.554H87.5549V20.96H86.9429V16.298H87.5549V15.704H95.6729V15.182H87.5549V14.588H86.9429V13.094H87.5549V12.5H98.2829V13.094H98.8949V17.774H98.2829V18.368H90.1469V18.872H98.2829V19.466H98.8949V20.96H98.2829V21.554H94.5389V22.796ZM100.691 25.406V23.39H101.285V22.796H107.837V23.39H108.431V25.406H107.837V26H101.285V25.406H100.691ZM121.522 26H110.578V25.406H109.984V21.95H110.578V21.356H112.612V21.95H113.206V23.228H121.522V23.822H122.116V25.406H121.522V26ZM114.952 18.26V17.738H114.538V17.468H112.954V17.738H112.558V18.26H112.954V18.548H114.538V18.26H114.952ZM119.506 12.5H121.54V13.094H122.116V15.2H123.052V15.794H123.646V17.45H123.052V18.044H122.116V20.132H121.54V20.726H119.506V20.132H118.912V13.094H119.506V12.5ZM111.046 15.578H110.002V14.984H109.408V13.598H110.002V13.004H112.306V12.356H112.918V11.834H114.61V12.356H115.222V13.004H117.49V13.598H118.084V14.984H117.49V15.578H116.464V16.082H116.932V16.568H117.4V17.036H117.85V19.304H117.4V19.79H116.932V20.258H116.464V20.744H111.046V20.258H110.578V19.79H110.11V19.304H109.642V17.036H110.11V16.568H110.578V16.082H111.046V15.578ZM124.281 25.406V23.39H124.875V22.796H131.427V23.39H132.021V25.406H131.427V26H124.875V25.406H124.281ZM145.111 26H134.167V25.406H133.573V21.59H134.167V20.996H136.201V21.59H136.795V23.138H145.111V23.732H145.705V25.406H145.111V26ZM137.659 18.602H133.843V18.008H133.249V16.514H133.843V15.92H137.659V15.182H133.843V14.588H133.249V13.094H133.843V12.5H140.287V13.094H140.881V19.61H140.287V20.204H138.253V19.61H137.659V18.602ZM143.095 12.5H145.129V13.094H145.705V14.93H146.641V15.524H147.235V17.216H146.641V17.81H145.705V19.646H145.129V20.24H143.095V19.646H142.501V13.094H143.095V12.5ZM147.871 25.406V23.39H148.465V22.796H155.017V23.39H155.611V25.406H155.017V26H148.465V25.406H147.871ZM166.325 17.594H165.191V17.054H164.633V15.506H165.191V14.984H166.325V13.094H166.919V12.5H168.971V13.094H169.565V19.646H168.971V20.24H166.919V19.646H166.325V17.594ZM168.971 26H158.027V25.406H157.433V21.59H158.027V20.996H160.061V21.59H160.655V23.138H168.971V23.732H169.565V25.406H168.971V26ZM158.837 15.344H157.181V14.75H156.587V13.094H157.181V12.5H164.309V13.094H164.903V14.75H164.309V15.344H162.653V15.974H163.175V16.478H163.679V17H164.201V17.504H164.705V19.7H164.201V20.204H162.653V19.7H162.149V19.178H161.627V18.674H161.123V18.17H160.367V18.674H159.863V19.178H159.341V19.7H158.837V20.204H157.289V19.7H156.785V17.504H157.289V17H157.811V16.478H158.315V15.974H158.837V15.344ZM183.368 12.5V13.094H183.962V19.646H183.368V20.24H181.316V19.646H180.722V13.094H181.316V12.5H183.368ZM183.368 26H172.424V25.406H171.83V21.59H172.424V20.996H174.458V21.59H175.052V23.138H183.368V23.732H183.962V25.406H183.368V26ZM173.234 15.344H171.578V14.75H170.984V13.094H171.578V12.5H178.706V13.094H179.3V14.75H178.706V15.344H177.05V15.974H177.572V16.478H178.076V17H178.598V17.504H179.102V19.7H178.598V20.204H177.05V19.7H176.546V19.178H176.024V18.674H175.52V18.17H174.764V18.674H174.26V19.178H173.738V19.7H173.234V20.204H171.686V19.7H171.182V17.504H171.686V17H172.208V16.478H172.712V15.974H173.234V15.344ZM189.862 12.536H190.492V14.192H189.862V14.822H189.214V15.488H188.512V23.048H189.214V23.732H189.862V24.398H190.492V26H189.862V26.558H187.198V26H186.532V25.262H185.884V24.398H185.308V14.192H185.884V13.292H186.532V12.536H187.198V11.96H189.862V12.536ZM191.88 12.536V11.96H194.526V12.536H195.192V13.292H195.84V14.192H196.416V24.398H195.84V25.262H195.192V26H194.526V26.558H191.88V26H191.25V24.398H191.88V23.732H192.528V23.048H193.212V15.488H192.528V14.822H191.88V14.192H191.25V12.536H191.88Z" fill="white"/>
</svg>
