<svg width="226" height="39" viewBox="0 0 226 39" fill="none" xmlns="http://www.w3.org/2000/svg">
<rect width="226" height="39" rx="10" fill="#B3C62F"/>
<path d="M42.3832 15.524V15.002H41.9512V14.678H39.7192V15.002H39.3052V15.524H39.7192V15.848H41.9512V15.524H42.3832ZM48.6832 12.5V13.094H49.2772V21.446H48.6832V22.04H46.8112V21.446H46.2172V13.094H46.8112V12.5H48.6832ZM42.3292 18.584H45.0832V19.178H45.6772V20.6H45.0832V21.194H36.9652V20.6H36.3712V19.178H36.9652V18.584H39.3592V18.026H38.0812V17.522H37.5952V17.018H37.1092V16.514H36.6052V13.994H37.1092V13.49H37.5952V12.986H38.0812V12.5H43.6072V12.986H44.1112V13.49H44.5972V13.994H45.0832V16.514H44.5972V17.018H44.1112V17.522H43.6072V18.026H42.3292V18.584ZM48.6832 26H37.7392V25.406H37.1452V22.31H37.7392V21.716H39.7732V22.31H40.3672V23.228H48.6832V23.822H49.2772V25.406H48.6832V26ZM51.9557 21.446H62.8997V22.04H63.4937V25.406H62.8997V26H60.8657V25.406H60.2717V23.948H51.9557V23.354H51.3617V22.04H51.9557V21.446ZM59.0477 18.584H63.5837V19.088H64.0877V20.474H63.5837V20.978H51.2717V20.474H50.7677V19.088H51.2717V18.584H55.8077V17.504H55.3397V17.144H54.8537V16.802H54.5657V17.144H54.0797V17.504H53.6117V17.864H53.1977V18.206H51.9917V17.864H51.5777V15.866H51.9917V15.524H52.3697V15.164H52.7657V14.804H51.6317V14.3H51.1277V13.022H51.6317V12.5H63.2237V13.022H63.7277V14.3H63.2237V14.804H62.0897V15.164H62.4857V15.524H62.8817V15.866H63.2777V17.864H62.8817V18.206H61.6757V17.864H61.2617V17.504H60.7937V17.144H60.3077V16.802H60.0017V17.144H59.5157V17.504H59.0477V18.584ZM58.2197 14.804H56.6537V15.164H57.0497V15.524H57.8237V15.164H58.2197V14.804ZM74.2902 15.344H69.3942V15.848H68.9622V17.45H69.3942V17.954H74.2902V17.45H74.7042V15.848H74.2902V15.344ZM65.1642 25.046V23.39H65.7582V22.796H77.8902V23.39H78.4842V25.046H77.8902V25.64H65.7582V25.046H65.1642ZM67.6122 13.094V12.5H76.0182V13.094H76.6302V13.688H77.2242V14.282H77.8182V18.998H77.2242V19.592H76.6302V20.186H76.0182V20.798H67.6122V20.186H67.0182V19.592H66.4242V18.998H65.8302V14.282H66.4242V13.688H67.0182V13.094H67.6122ZM87.8406 22.796H92.2866V23.39H92.8806V25.046H92.2866V25.64H80.1546V25.046H79.5606V23.39H80.1546V22.796H84.6006V21.554H80.8566V20.96H80.2446V16.298H80.8566V15.704H88.9746V15.182H80.8566V14.588H80.2446V13.094H80.8566V12.5H91.5846V13.094H92.1966V17.774H91.5846V18.368H83.4486V18.872H91.5846V19.466H92.1966V20.96H91.5846V21.554H87.8406V22.796ZM93.9931 25.406V23.39H94.5871V22.796H101.139V23.39H101.733V25.406H101.139V26H94.5871V25.406H93.9931ZM114.823 26H103.879V25.406H103.285V21.95H103.879V21.356H105.913V21.95H106.507V23.228H114.823V23.822H115.417V25.406H114.823V26ZM108.253 18.26V17.738H107.839V17.468H106.255V17.738H105.859V18.26H106.255V18.548H107.839V18.26H108.253ZM112.807 12.5H114.841V13.094H115.417V15.2H116.353V15.794H116.947V17.45H116.353V18.044H115.417V20.132H114.841V20.726H112.807V20.132H112.213V13.094H112.807V12.5ZM104.347 15.578H103.303V14.984H102.709V13.598H103.303V13.004H105.607V12.356H106.219V11.834H107.911V12.356H108.523V13.004H110.791V13.598H111.385V14.984H110.791V15.578H109.765V16.082H110.233V16.568H110.701V17.036H111.151V19.304H110.701V19.79H110.233V20.258H109.765V20.744H104.347V20.258H103.879V19.79H103.411V19.304H102.943V17.036H103.411V16.568H103.879V16.082H104.347V15.578ZM117.583 25.406V23.39H118.177V22.796H124.729V23.39H125.323V25.406H124.729V26H118.177V25.406H117.583ZM138.413 26H127.469V25.406H126.875V21.59H127.469V20.996H129.503V21.59H130.097V23.138H138.413V23.732H139.007V25.406H138.413V26ZM130.961 18.602H127.145V18.008H126.551V16.514H127.145V15.92H130.961V15.182H127.145V14.588H126.551V13.094H127.145V12.5H133.589V13.094H134.183V19.61H133.589V20.204H131.555V19.61H130.961V18.602ZM136.397 12.5H138.431V13.094H139.007V14.93H139.943V15.524H140.537V17.216H139.943V17.81H139.007V19.646H138.431V20.24H136.397V19.646H135.803V13.094H136.397V12.5ZM141.173 25.406V23.39H141.767V22.796H148.319V23.39H148.913V25.406H148.319V26H141.767V25.406H141.173ZM159.627 17.594H158.493V17.054H157.935V15.506H158.493V14.984H159.627V13.094H160.221V12.5H162.273V13.094H162.867V19.646H162.273V20.24H160.221V19.646H159.627V17.594ZM162.273 26H151.329V25.406H150.735V21.59H151.329V20.996H153.363V21.59H153.957V23.138H162.273V23.732H162.867V25.406H162.273V26ZM152.139 15.344H150.483V14.75H149.889V13.094H150.483V12.5H157.611V13.094H158.205V14.75H157.611V15.344H155.955V15.974H156.477V16.478H156.981V17H157.503V17.504H158.007V19.7H157.503V20.204H155.955V19.7H155.451V19.178H154.929V18.674H154.425V18.17H153.669V18.674H153.165V19.178H152.643V19.7H152.139V20.204H150.591V19.7H150.087V17.504H150.591V17H151.113V16.478H151.617V15.974H152.139V15.344ZM176.67 12.5V13.094H177.264V19.646H176.67V20.24H174.618V19.646H174.024V13.094H174.618V12.5H176.67ZM176.67 26H165.726V25.406H165.132V21.59H165.726V20.996H167.76V21.59H168.354V23.138H176.67V23.732H177.264V25.406H176.67V26ZM166.536 15.344H164.88V14.75H164.286V13.094H164.88V12.5H172.008V13.094H172.602V14.75H172.008V15.344H170.352V15.974H170.874V16.478H171.378V17H171.9V17.504H172.404V19.7H171.9V20.204H170.352V19.7H169.848V19.178H169.326V18.674H168.822V18.17H168.066V18.674H167.562V19.178H167.04V19.7H166.536V20.204H164.988V19.7H164.484V17.504H164.988V17H165.51V16.478H166.014V15.974H166.536V15.344ZM183.164 12.536H183.794V14.192H183.164V14.822H182.516V15.488H181.814V23.048H182.516V23.732H183.164V24.398H183.794V26H183.164V26.558H180.5V26H179.834V25.262H179.186V24.398H178.61V14.192H179.186V13.292H179.834V12.536H180.5V11.96H183.164V12.536ZM185.181 12.536V11.96H187.827V12.536H188.493V13.292H189.141V14.192H189.717V24.398H189.141V25.262H188.493V26H187.827V26.558H185.181V26H184.551V24.398H185.181V23.732H185.829V23.048H186.513V15.488H185.829V14.822H185.181V14.192H184.551V12.536H185.181Z" fill="white"/>
</svg>
