<svg width="52" height="12" viewBox="0 0 52 12" fill="none" xmlns="http://www.w3.org/2000/svg">
<path d="M3.51354 5.13H7.59354V5.775H8.23854V7.425H7.59354V8.07H3.51354V11.355H2.86854V12H1.21854V11.355H0.573535V1.395H1.21854V0.749999H7.89354V1.395H8.53854V3.03H7.89354V3.675H3.51354V5.13ZM13.9697 9.21H15.1547V9.78H15.7247V11.43H15.1547V12H9.84471V11.43H9.27471V9.78H9.84471V9.21H11.0297V3.525H9.84471V2.955H9.27471V1.305H9.84471V0.734999H15.1547V1.305H15.7247V2.955H15.1547V3.525H13.9697V9.21ZM22.1747 5.16V1.35H22.7747V0.749999H24.5147V1.35H25.1147V11.4H24.5147V12H22.7747V11.4H22.1747V10.71H21.6647V9.99H21.1397V9.195H20.6297V8.46H20.1197V7.59H19.7147V11.4H19.1147V12H17.3747V11.4H16.7747V1.35H17.3747V0.749999H19.1147V1.35H19.7147V2.04H20.2697V2.775H20.7797V3.57H21.2897V4.29H21.7847V5.16H22.1747ZM30.7715 9.21H31.9565V9.78H32.5265V11.43H31.9565V12H26.6465V11.43H26.0765V9.78H26.6465V9.21H27.8315V3.525H26.6465V2.955H26.0765V1.305H26.6465V0.734999H31.9565V1.305H32.5265V2.955H31.9565V3.525H30.7715V9.21ZM35.4665 7.785V7.14H34.7465V6.465H34.0415V5.775H33.4265V2.835H34.0415V2.13H34.7465V1.41H35.4665V0.749999H40.7915V1.32H41.4815V3.06H40.7915V3.675H37.1165V4.095H36.5015V4.53H37.1165V4.965H39.6665V5.61H40.3865V6.285H41.0765V6.975H41.7065V9.9H41.0765V10.62H40.3865V11.34H39.6665V12H34.3715V11.43H33.6965V9.69H34.3715V9.075H38.0165V8.655H38.6315V8.205H38.0165V7.785H35.4665ZM48.2706 4.83V1.32H48.8406V0.749999H50.6406V1.32H51.2106V11.43H50.6406V12H48.8406V11.43H48.2706V7.92H45.5106V11.43H44.8656V12H43.1406V11.43H42.5706V1.32H43.1406V0.749999H44.8656V1.32H45.5106V4.83H48.2706Z" fill="#007991"/>
</svg>
