<svg width="31" height="31" viewBox="0 0 31 31" fill="none" xmlns="http://www.w3.org/2000/svg">
<path fill-rule="evenodd" clip-rule="evenodd" d="M30.25 15.125C30.25 6.77188 23.4781 -2.96008e-07 15.125 -6.61135e-07C6.77188 -1.02626e-06 -2.96008e-07 6.77187 -6.61135e-07 15.125C-1.02626e-06 23.4781 6.77187 30.25 15.125 30.25C23.4781 30.25 30.25 23.4781 30.25 15.125ZM19.6529 12.0904C19.9122 11.8399 20.2595 11.7013 20.6201 11.7044C20.9806 11.7076 21.3254 11.8522 21.5804 12.1071C21.8353 12.3621 21.9799 12.7069 21.9831 13.0674C21.9862 13.428 21.8476 13.7753 21.5971 14.0346L16.0971 19.5346C15.8393 19.7924 15.4896 19.9372 15.125 19.9372C14.7604 19.9372 14.4107 19.7924 14.1529 19.5346L8.65287 14.0346C8.40241 13.7753 8.26381 13.428 8.26695 13.0674C8.27008 12.7069 8.41469 12.3621 8.66962 12.1071C8.92456 11.8522 9.26943 11.7076 9.62995 11.7044C9.99047 11.7013 10.3378 11.8399 10.5971 12.0904L15.125 16.6182L19.6529 12.0904Z" fill="#1396AF"/>
</svg>
