<svg width="242" height="273" viewBox="0 0 242 273" fill="none" xmlns="http://www.w3.org/2000/svg">
<rect y="19.3119" width="241.309" height="253.688" rx="20" fill="white"/>
<path d="M0 36.3055C0 26.9202 7.60828 19.3119 16.9936 19.3119H224.379C233.729 19.3119 241.309 26.8918 241.309 36.242V36.242C241.309 44.3649 235.511 51.3633 227.517 52.8042C143.441 67.9583 92.5749 67.689 13.7034 52.8962C5.74089 51.4028 0 44.4068 0 36.3055V36.3055Z" fill="#1396AF"/>
<path d="M94.8828 46.1844V45.7844H95.4578V45.3594H94.8828V44.9344H87.3328V45.3594H86.7328V45.7844H87.3328V46.1844H94.8828ZM97.2328 49.3344H84.9078V48.5844H84.0828V47.7844H83.2578V46.9094H82.6328V44.1844H83.2578V43.3094H84.0828V42.5094H84.9078V41.7844H97.2328V42.5094H98.0828V43.3094H98.9078V44.1844H99.5328V46.9094H98.9078V47.7844H98.0828V48.5844H97.2328V49.3344ZM87.4328 37.4844V37.0344H86.8328V36.5094H84.9828V37.0344H84.3828V37.4844H84.9828V38.0094H86.8328V37.4844H87.4328ZM95.9328 33.9844V31.2844H96.7578V30.5594H98.9578V31.2844H99.7828V40.0844H98.9578V40.7594H96.7578V40.0844H95.9328V37.3594H95.1328V40.0844H94.3078V40.7594H92.1078V40.0844H91.2828V31.2844H92.1078V30.5594H94.3078V31.2844H95.1328V33.9844H95.9328ZM83.9078 31.2594V30.3594H84.7578V29.6594H87.0828V30.3594H87.9328V31.2594H90.1578V32.0594H90.8828V33.5594H90.1578V34.3594H89.1078V34.9594H89.8078V35.5844H90.4828V39.1094H89.8078V39.7594H89.1078V40.3844H88.4328V41.0344H83.4328V40.3844H82.7328V39.7594H82.0328V39.1094H81.3578V35.5844H82.0328V34.9594H82.7328V34.3594H81.6828V33.5594H80.9578V32.0594H81.6828V31.2594H83.9078ZM114.153 46.3594V45.9094H114.728V45.5094H114.153V45.0594H106.603V45.5094H106.003V45.9094H106.603V46.3594H114.153ZM116.628 49.3344H104.053V48.6094H103.228V47.7094H102.403V46.8844H101.778V44.4844H102.403V43.6594H103.228V42.7594H104.053V42.0594H116.628V42.7594H117.478V43.6594H118.303V44.4844H118.928V46.8844H118.303V47.7094H117.478V48.6094H116.628V49.3344ZM108.103 37.4094H102.753V36.5844H101.928V31.4094H102.753V30.5844H118.003V31.3594H118.778V32.9094H118.003V33.6844H106.403V34.3094H118.003V35.0844H118.778V36.6344H118.003V37.4094H112.603V38.0594H118.903V38.7594H119.603V40.6844H118.903V41.3844H101.803V40.6844H101.103V38.7594H101.803V38.0594H108.103V37.4094ZM135.023 30.5844H137.848V31.4094H138.648V37.9594H139.948V38.7844H140.773V41.1344H139.948V41.9594H138.648V48.5094H137.848V49.3344H135.023V48.5094H134.198V31.4094H135.023V30.5844ZM127.473 41.9344H122.173V41.1094H121.348V38.7844H122.173V37.9594H127.473V34.5594H122.173V33.7344H121.348V31.4094H122.173V30.5844H131.123V31.4094H131.948V47.7094H131.123V48.5344H128.298V47.7094H127.473V41.9344ZM141.606 48.0094V45.7094H142.431V44.8844H159.281V45.7094H160.106V48.0094H159.281V48.8344H142.431V48.0094H141.606ZM158.206 30.5844V31.4094H159.031V33.7344H158.206V34.5594H147.156V38.6594H158.206V39.4844H159.031V41.8094H158.206V42.6344H143.506V41.8094H142.681V31.4094H143.506V30.5844H158.206Z" fill="white"/>
<path d="M93.5 20.8758C93.5 22.675 93.234 23.3117 93.1252 23.4943C93.0402 23.503 92.8746 23.5072 92.5952 23.4674C92.0618 23.3915 91.3533 23.1911 90.4073 22.8486C89.622 22.5644 88.774 22.2206 87.8151 21.8319C87.6268 21.7556 87.4342 21.6775 87.2369 21.5978C86.0595 21.1221 84.7565 20.6053 83.3729 20.1318C80.6108 19.1866 77.4234 18.3758 74 18.3758C70.5766 18.3758 67.3893 19.1866 64.6271 20.1318C63.2435 20.6053 61.9405 21.1221 60.7631 21.5978C60.5658 21.6775 60.3733 21.7556 60.185 21.8319C59.226 22.2206 58.378 22.5644 57.5927 22.8486C56.6467 23.1911 55.9382 23.3915 55.4048 23.4674C55.1254 23.5072 54.9598 23.503 54.8748 23.4943C54.766 23.3117 54.5 22.675 54.5 20.8758C54.5 10.8491 63.1053 2.5 74 2.5C84.8947 2.5 93.5 10.8491 93.5 20.8758ZM93.0796 23.5571C93.0795 23.5569 93.0821 23.5537 93.0882 23.5483C93.0828 23.5547 93.0798 23.5574 93.0796 23.5571ZM54.9204 23.5571C54.9202 23.5574 54.9172 23.5547 54.9118 23.5483C54.9179 23.5537 54.9205 23.5569 54.9204 23.5571Z" fill="#1396AF" stroke="#1396AF" stroke-width="5"/>
<path d="M187.5 20.8758C187.5 22.7016 187.22 23.3212 187.111 23.4888C187.026 23.5013 186.84 23.5134 186.502 23.4663C185.946 23.3888 185.213 23.1856 184.244 22.8426C183.529 22.5897 182.711 22.2638 181.806 21.9033C178.104 20.4287 172.95 18.3758 167.5 18.3758C162.05 18.3758 156.896 20.4287 153.194 21.9033C152.289 22.2638 151.471 22.5897 150.756 22.8426C149.787 23.1856 149.054 23.3888 148.498 23.4663C148.16 23.5134 147.974 23.5013 147.889 23.4888C147.78 23.3212 147.5 22.7017 147.5 20.8758C147.5 10.9002 156.275 2.5 167.5 2.5C178.725 2.5 187.5 10.9002 187.5 20.8758ZM187.068 23.5419C187.068 23.5413 187.073 23.5358 187.083 23.5272C187.074 23.5382 187.069 23.5425 187.068 23.5419ZM147.932 23.5419C147.931 23.5425 147.926 23.5382 147.917 23.5272C147.927 23.5358 147.932 23.5413 147.932 23.5419Z" fill="#1396AF" stroke="#1396AF" stroke-width="5"/>
</svg>
