<svg width="48" height="12" viewBox="0 0 48 12" fill="none" xmlns="http://www.w3.org/2000/svg">
<path d="M2.71939 7.785V7.14H1.99939V6.465H1.29439V5.775H0.679395V2.835H1.29439V2.13H1.99939V1.41H2.71939V0.749999H8.0444V1.32H8.7344V3.06H8.0444V3.675H4.36939V4.095H3.75439V4.53H4.36939V4.965H6.91939V5.61H7.63939V6.285H8.32939V6.975H8.95939V9.9H8.32939V10.62H7.63939V11.34H6.91939V12H1.62439V11.43H0.949395V9.69H1.62439V9.075H5.26939V8.655H5.88439V8.205H5.26939V7.785H2.71939ZM17.8335 0.749999V1.32H18.3735V3.12H17.8335V3.69H15.5685V11.43H15.0285V12H13.0485V11.43H12.4785V3.69H10.2435V3.12H9.67354V1.32H10.2435V0.749999H17.8335ZM25.2903 6.075V5.13H24.6753V4.23H24.0753V3.51H23.2503V4.23H22.6503V5.13H22.0353V6.075H25.2903ZM25.2903 8.715H22.0353V11.385H21.4203V12H19.7703V11.385H19.1253V4.08H19.7703V3.15H20.3853V2.265H20.9853V1.38H21.6003V0.749999H25.7253V1.38H26.3403V2.265H26.9403V3.15H27.5553V4.08H28.2153V11.385H27.5853V12H25.9503V11.385H25.2903V8.715ZM34.2106 3.54H32.2606V5.445H34.2106V4.86H34.6756V4.125H34.2106V3.54ZM36.5956 8.13H37.2556V8.85H37.7656V11.43H37.2556V12H35.5906V11.43H35.0656V10.68H34.4806V9.825H33.8956V9H33.2356V8.28H32.2606V11.43H31.6906V12H29.8906V11.43H29.3206V1.32H29.8906V0.749999L36.0256 0.734999V1.32H36.5956V2.07H37.1356V2.79H37.6306V6.12H37.1356V6.825H36.5956V8.13ZM46.7788 0.749999V1.32H47.3188V3.12H46.7788V3.69H44.5138V11.43H43.9738V12H41.9938V11.43H41.4238V3.69H39.1888V3.12H38.6188V1.32H39.1888V0.749999H46.7788Z" fill="#007991"/>
</svg>
