<svg width="312" height="70" viewBox="0 0 312 70" fill="none" xmlns="http://www.w3.org/2000/svg">
<path d="M30.7831 13.54V13.14H31.2431V12.8H30.7831V12.4H24.7431V12.8H24.2631V13.14H24.7431V13.54H30.7831ZM32.6631 16H22.8031V15.36H22.1431V14.66H21.4831V13.94H20.9831V11.98H21.4831V11.26H22.1431V10.56H22.8031V9.94H32.6631V10.56H33.3431V11.26H34.0031V11.98H34.5031V13.94H34.0031V14.66H33.3431V15.36H32.6631V16ZM23.8431 6.36V6.78H28.8831V7.34H29.4431V8.7H28.8831V9.26H21.0231V8.7H20.4631V1.56H21.0231V0.999999H28.8831V1.56H29.4431V2.92H28.8831V3.48H23.8431V3.88H28.8831V4.44H29.4431V5.8H28.8831V6.36H23.8431ZM31.4031 0.999999H33.6631V1.66H34.3031V3.5H35.3431V4.16H36.0031V6H35.3431V6.66H34.3031V8.6H33.6631V9.26H31.4031V8.6H30.7431V1.66H31.4031V0.999999ZM41.6294 7.4H46.5294V7.1H46.9894V6.62H46.5294V6.32H41.6294V6.62H41.1694V7.1H41.6294V7.4ZM42.2694 13.62H37.3294V12.98H36.6694V11.32H37.3294V10.66H50.8094V11.32H51.4694V12.98H50.8094V13.62H45.8694V15.34H45.2094V16H42.9294V15.34H42.2694V13.62ZM39.1894 4.54H37.6494V3.88H36.9894V2.22H37.6494V1.56H42.2494V0.84H42.9294V0.259999H45.1894V0.84H45.8694V1.56H50.4894V2.22H51.1494V3.88H50.4894V4.54H49.1894V5.04H49.8294V5.64H50.4494V8.28H49.8294V8.88H49.1894V9.5H48.5494V10.1H39.8294V9.5H39.1894V8.88H38.5494V8.28H37.9094V5.64H38.5494V5.04H39.1894V4.54ZM66.1655 6.68H56.9255V7.28H66.1655V7.82H66.7055V9.3H66.1655V9.84H53.9655V9.3H53.4255V4.68H53.9655V4.14H63.2055V3.54H53.9655V2.98H53.4255V1.54H53.9655V0.979999H66.1655V1.54H66.7055V6.14H66.1655V6.68ZM67.4655 12.98H66.8055V13.62H61.8655V15.34H61.2055V16H58.9255V15.34H58.2655V13.62H53.3255V12.98H52.6655V11.12H53.3255V10.46H66.8055V11.12H67.4655V12.98ZM72.8816 13.82V14.18H82.3216V14.64H82.8016V15.54H82.3216V16H69.8016V15.54H69.3216V12.48H69.8016V12.02H79.2216V11.64H69.8016V11.12H69.3216V10.28H69.8016V9.82H82.3216V10.28H82.8016V13.36H82.3216V13.82H72.8816ZM68.6616 9V8.04H69.1616V7.54H82.9616V8.04H83.4616V9H82.9616V9.5H69.1616V9H68.6616ZM82.3216 4.54V5H72.8816V5.36H82.3216V5.82H82.8016V6.72H82.3216V7.18H69.8016V6.72H69.3216V3.66H69.8016V3.2H79.2216V2.82H69.8016V2.3H69.3216V1.46H69.8016V0.999999H82.3216V1.46H82.8016V4.54H82.3216ZM94.1616 3.98H92.4416V6.58H94.1616V3.98ZM90.1816 10.44H102.342V11.1H103.002V15.34H102.342V16H100.082V15.34H99.4216V13.62H90.1816V12.96H89.5216V11.1H90.1816V10.44ZM97.7416 6.88V8.9H97.0816V9.56H89.5216V8.9H88.8616V1.66H89.5216V0.999999H97.0816V1.66H97.7416V3.72H99.4016V1.66H100.062V0.999999H102.342V1.66H103.002V8.94H102.342V9.6H100.062V8.94H99.4016V6.88H97.7416ZM106.178 1.66V0.999999H117.938V1.66H118.598V9.42H117.938V10.08H115.678V9.42H115.018V4.18H106.178V3.52H105.518V1.66H106.178ZM112.758 12.44H118.798V13.1H119.458V14.94H118.798V15.6H105.318V14.94H104.658V13.1H105.318V12.44H109.158V8.08H109.818V7.42H112.098V8.08H112.758V12.44ZM133.118 13.18V12.04H131.258V13.18H133.118ZM138.338 0.999999V1.66H138.998V7.94H138.338V8.6H136.058V7.94H135.398V1.66H136.058V0.999999H138.338ZM138.438 9.24V9.8H138.998V11.48H138.438V12.04H136.798V13.18H138.438V13.76H138.998V15.44H138.438V16H125.938V15.44H125.378V13.76H125.938V13.18H127.578V12.04H125.938V11.48H125.378V9.8H125.938V9.24H138.438ZM131.118 3.26H131.678V3.84H132.258V4.42H132.838V5H133.418V5.58H133.998V7.98H133.418V8.56H131.478V7.98H130.898V7.4H130.318V6.82H129.738V6.24H128.858V6.82H128.278V7.4H127.698V7.98H127.118V8.56H125.178V7.98H124.598V5.58H125.178V5H125.758V4.42H126.338V3.84H126.918V3.26H127.478V1.68H128.158V0.999999H130.438V1.68H131.118V3.26ZM146.254 11.88V4.64H145.694V4.16H144.854V4.64H144.314V11.88H144.854V12.34H145.694V11.88H146.254ZM149.734 10.08V13.52H149.074V14.2H148.434V14.86H147.794V15.52H142.794V14.86H142.134V14.2H141.494V13.52H140.834V2.98H141.494V2.32H142.134V1.66H142.794V0.999999H147.794V1.66H148.434V2.32H149.074V2.98H149.734V6.92H151.594V1.66H152.254V0.999999H154.534V1.66H155.194V15.34H154.534V16H152.254V15.34H151.594V10.08H149.734ZM162.09 12.5V8.8H161.63V8.34H160.97V8.8H160.51V12.5H160.97V12.96H161.63V12.5H162.09ZM167.79 0.999999H170.05V1.66H170.69V6.9H171.73V7.56H172.39V9.44H171.73V10.1H170.69V15.34H170.05V16H167.79V15.34H167.13V1.66H167.79V0.999999ZM163.13 1.8H165.51V2.46H166.17V4.32H165.51V4.98H157.15V4.32H156.49V2.46H157.15V1.8H159.51V0.879999H160.19V0.299999H162.45V0.879999H163.13V1.8ZM165.07 7.48H165.71V13.8H165.07V14.44H164.43V15.08H163.79V15.72H158.79V15.08H158.15V14.44H157.51V13.8H156.89V7.48H157.51V6.84H158.15V6.2H158.79V5.58H163.79V6.2H164.43V6.84H165.07V7.48ZM186.536 13.48H187.196V15.34H186.536V16H174.376V15.34H173.716V11.6H174.376V10.94H176.636V11.6H177.296V12.82H186.536V13.48ZM173.056 9.86V8.22H173.616V7.66H187.296V8.22H187.856V9.86H187.296V10.42H173.616V9.86H173.056ZM186.536 7.06H174.376V6.4H173.716V1.66H174.376V0.999999H176.636V1.66H177.296V4.18H186.536V4.84H187.196V6.4H186.536V7.06ZM198.656 11.88V4.64H198.096V4.16H197.256V4.64H196.716V11.88H197.256V12.34H198.096V11.88H198.656ZM202.136 7.76V8.92H203.996V7.76H202.136ZM202.136 12.3V13.52H201.476V14.2H200.836V14.86H200.196V15.52H195.196V14.86H194.536V14.2H193.896V13.52H193.236V2.98H193.896V2.32H194.536V1.66H195.196V0.999999H200.196V1.66H200.836V2.32H201.476V2.98H202.136V4.38H203.996V1.66H204.656V0.999999H206.936V1.66H207.596V15.34H206.936V16H204.656V15.34H203.996V12.3H202.136ZM212.812 9.76V12.18H216.852V12.84H217.532V14.7H216.852V15.36H209.932V14.7H209.252V7.26H209.932V6.6H213.952V4.18H209.932V3.52H209.252V1.66H209.932V0.999999H216.852V1.66H217.532V9.1H216.852V9.76H212.812ZM219.992 10.08H218.632V9.42H217.952V7.56H218.632V6.92H219.992V1.66H220.652V0.999999H222.932V1.66H223.592V15.34H222.932V16H220.652V15.34H219.992V10.08ZM235.568 5.26V4.72H229.328V5.26H235.568ZM238.528 13.68H239.188V15.34H238.528V16H226.368V15.34H225.708V12H226.368V11.34H228.628V12H229.288V13.02H238.528V13.68ZM238.508 0.999999V1.62H239.188V7.08H238.508V7.74H226.368V7.08H225.708V1.62H226.368V0.999999H228.648V1.62H229.328V2.24H235.568V1.62H236.228V0.999999H238.508ZM230.648 10.82H225.608V10.26H225.048V8.82H225.608V8.26H239.288V8.82H239.848V10.26H239.288V10.82H234.248V11.74H233.588V12.4H231.308V11.74H230.648V10.82ZM251.584 4.1V3.78H252.044V3.46H251.584V3.16H245.404V3.46H244.924V3.78H245.404V4.1H251.584ZM253.764 6.24H243.184V5.74H242.604V5.12H242.024V4.54H241.584V2.7H242.024V2.12H242.604V1.48H243.184V0.999999H253.764V1.48H254.364V2.12H254.944V2.7H255.384V4.54H254.944V5.12H254.364V5.74H253.764V6.24ZM241.544 8.78V8.26H241.044V7.16H241.544V6.66H255.344V7.16H255.844V8.26H255.344V8.78H241.544ZM254.704 9.2V9.68H255.184V13.16H254.704V13.64H245.264V13.98H254.704V14.46H255.184V15.52H254.704V16H242.184V15.52H241.704V12.08H242.184V11.62H251.604V11.24H242.184V10.76H241.704V9.68H242.184V9.2H254.704ZM267.344 4.1H265.104V4.66H264.624V5.3H265.104V5.86H267.344V5.3H267.804V4.66H267.344V4.1ZM272.984 0.999999H275.144V1.66H275.784V15.34H275.144V16H272.984V15.34H272.324V1.66H272.984V0.999999ZM263.444 1.64V0.979999H268.984V1.64H269.664V2.3H270.324V2.96H270.984V6.96H270.324V7.62H269.664V8.28H268.984V8.96H263.444V8.28H262.784V7.62H262.124V6.96H261.464V2.96H262.124V2.3H262.784V1.64H263.444ZM264.424 12.82H261.704V12.16H261.044V10.32H261.704V9.66H270.724V10.32H271.384V12.16H270.724V12.82H268.024V15.34H267.364V16H265.084V15.34H264.424V12.82ZM281.631 12.4V8.7H281.271V8.24H280.811V8.7H280.451V12.4H280.811V12.86H281.271V12.4H281.631ZM288.711 10.08V15.34H288.051V16H286.231V15.34H285.571V1.66H286.231V0.999999H288.051V1.66H288.711V6.92H289.251V1.66H289.911V0.999999H291.731V1.66H292.391V15.34H291.731V16H289.911V15.34H289.251V10.08H288.711ZM284.111 7.28H284.751V13.8H284.111V14.44H283.471V15.08H282.831V15.72H279.431V15.08H278.791V14.44H278.151V13.8H277.531V7.28H278.151V6.64H278.791V6H279.431V5.38H282.831V6H283.471V6.64H284.111V7.28ZM282.951 1.8H284.311V2.46H284.971V4.32H284.311V4.98H277.951V4.32H277.291V2.46H277.951V1.8H279.311V0.879999H279.991V0.299999H282.271V0.879999H282.951V1.8ZM11.4258 40.56V40.22H11.8858V39.92H11.4258V39.58H5.38578V39.92H4.90578V40.22H5.38578V40.56H11.4258ZM10.1858 28.86H10.8258V29.22H11.5858V29.56H12.3258V29.92H12.9858V30.28H13.6458V30.64H14.2858V31H14.9258V31.7H15.3858V33.24H14.9258V33.74H13.1658V33.38H12.3058V33.02H11.6658V32.66H11.0258V32.32H10.3458V31.96H9.60578V31.6H8.86578V31.24H7.92578V31.6H7.16578V31.96H6.42578V32.32H5.76578V32.66H5.10578V33.02H4.46578V33.38H3.62578V33.74H1.84578V33.24H1.38578V31.7H1.84578V31H2.50578V30.64H3.14578V30.28H3.78578V29.92H4.44578V29.56H5.20578V29.22H5.94578V28.86H6.60578V28.02H7.26578V27.6H9.54578V28.02H10.1858V28.86ZM12.3858 37.16H13.4058V37.68H14.0858V38.36H14.7458V38.98H15.2458V41.16H14.7458V41.78H14.0858V42.46H13.4058V43H3.34578V42.46H2.68578V41.78H2.02578V41.16H1.52578V38.98H2.02578V38.36H2.68578V37.68H3.34578V37.16H4.34578V36.7H1.54578V36.14H0.985781V34.7H1.54578V34.14H15.2258V34.7H15.7858V36.14H15.2258V36.7H12.3858V37.16ZM7.54578 37.16H9.18578V36.7H7.54578V37.16ZM27.4219 40.56V40.22H27.8819V39.92H27.4219V39.58H21.3819V39.92H20.9019V40.22H21.3819V40.56H27.4219ZM26.1819 28.86H26.8219V29.22H27.5819V29.56H28.3219V29.92H28.9819V30.28H29.6419V30.64H30.2819V31H30.9219V31.7H31.3819V33.24H30.9219V33.74H29.1619V33.38H28.3019V33.02H27.6619V32.66H27.0219V32.32H26.3419V31.96H25.6019V31.6H24.8619V31.24H23.9219V31.6H23.1619V31.96H22.4219V32.32H21.7619V32.66H21.1019V33.02H20.4619V33.38H19.6219V33.74H17.8419V33.24H17.3819V31.7H17.8419V31H18.5019V30.64H19.1419V30.28H19.7819V29.92H20.4419V29.56H21.2019V29.22H21.9419V28.86H22.6019V28.02H23.2619V27.6H25.5419V28.02H26.1819V28.86ZM28.3819 37.16H29.4019V37.68H30.0819V38.36H30.7419V38.98H31.2419V41.16H30.7419V41.78H30.0819V42.46H29.4019V43H19.3419V42.46H18.6819V41.78H18.0219V41.16H17.5219V38.98H18.0219V38.36H18.6819V37.68H19.3419V37.16H20.3419V36.7H17.5419V36.14H16.9819V34.7H17.5419V34.14H31.2219V34.7H31.7819V36.14H31.2219V36.7H28.3819V37.16ZM23.5419 37.16H25.1819V36.7H23.5419V37.16ZM38.578 38.88V31.64H38.018V31.16H37.178V31.64H36.638V38.88H37.178V39.34H38.018V38.88H38.578ZM41.398 29.98H42.058V40.52H41.398V41.2H40.758V41.86H40.118V42.52H35.118V41.86H34.458V41.2H33.818V40.52H33.158V29.98H33.818V29.32H34.458V28.66H35.118V28H40.118V28.66H40.758V29.32H41.398V29.98ZM46.858 28V28.66H47.518V42.34H46.858V43H44.578V42.34H43.918V28.66H44.578V28H46.858ZM63.418 40.52V40.16H63.878V39.84H63.418V39.48H57.378V39.84H56.898V40.16H57.378V40.52H63.418ZM65.398 43H55.338V42.42H54.678V41.7H54.018V41.04H53.518V38.92H54.018V38.26H54.678V37.54H55.338V36.98H65.398V37.54H66.078V38.26H66.738V38.92H67.238V41.04H66.738V41.7H66.078V42.42H65.398V43ZM58.578 33H54.298V32.34H53.638V28.66H54.298V28H56.558V28.66H57.218V30.28H66.458V30.94H67.118V32.34H66.458V33H62.178V33.6H67.218V34.16H67.778V35.8H67.218V36.36H53.538V35.8H52.978V34.16H53.538V33.6H58.578V33ZM74.5941 39.92H69.6341V39.28H68.9741V37.42H69.6341V36.76H83.1141V37.42H83.7741V39.28H83.1141V39.92H78.1741V42.34H77.5141V43H75.2541V42.34H74.5941V39.92ZM79.2941 32.98V32.44H73.4541V32.98H79.2941ZM82.2341 28V28.66H82.9141V35.28H82.2341V35.94H70.4941V35.28H69.8341V28.66H70.4941V28H72.7741V28.66H73.4541V29.38H79.2941V28.66H79.9541V28H82.2341ZM96.1102 28H98.3702V28.66H99.0102V33.9H100.05V34.56H100.71V36.44H100.05V37.1H99.0102V42.34H98.3702V43H96.1102V42.34H95.4502V28.66H96.1102V28ZM85.8302 28H92.5902V28.66H93.2502V41.7H92.5902V42.36H90.3302V41.7H89.6702V31.18H85.8302V30.52H85.1702V28.66H85.8302V28ZM115.9 40.54V40.14H116.36V39.8H115.9V39.4H109.86V39.8H109.38V40.14H109.86V40.54H115.9ZM117.78 43H107.92V42.36H107.26V41.66H106.6V40.94H106.1V38.98H106.6V38.26H107.26V37.56H107.92V36.94H117.78V37.56H118.46V38.26H119.12V38.98H119.62V40.94H119.12V41.66H118.46V42.36H117.78V43ZM108.96 33.36V33.78H114V34.34H114.56V35.7H114V36.26H106.14V35.7H105.58V28.56H106.14V28H114V28.56H114.56V29.92H114V30.48H108.96V30.88H114V31.44H114.56V32.8H114V33.36H108.96ZM116.52 28H118.78V28.66H119.42V30.5H120.46V31.16H121.12V33H120.46V33.66H119.42V35.6H118.78V36.26H116.52V35.6H115.86V28.66H116.52V28ZM126.747 34.4H131.647V34.1H132.107V33.62H131.647V33.32H126.747V33.62H126.287V34.1H126.747V34.4ZM127.387 40.62H122.447V39.98H121.787V38.32H122.447V37.66H135.927V38.32H136.587V39.98H135.927V40.62H130.987V42.34H130.327V43H128.047V42.34H127.387V40.62ZM124.307 31.54H122.767V30.88H122.107V29.22H122.767V28.56H127.367V27.84H128.047V27.26H130.307V27.84H130.987V28.56H135.607V29.22H136.267V30.88H135.607V31.54H134.307V32.04H134.947V32.64H135.567V35.28H134.947V35.88H134.307V36.5H133.667V37.1H124.947V36.5H124.307V35.88H123.667V35.28H123.027V32.64H123.667V32.04H124.307V31.54ZM151.283 33.68H142.043V34.28H151.283V34.82H151.823V36.3H151.283V36.84H139.083V36.3H138.543V31.68H139.083V31.14H148.323V30.54H139.083V29.98H138.543V28.54H139.083V27.98H151.283V28.54H151.823V33.14H151.283V33.68ZM152.583 39.98H151.923V40.62H146.983V42.34H146.323V43H144.043V42.34H143.383V40.62H138.443V39.98H137.783V38.12H138.443V37.46H151.923V38.12H152.583V39.98ZM157.999 40.82V41.18H167.439V41.64H167.919V42.54H167.439V43H154.919V42.54H154.439V39.48H154.919V39.02H164.339V38.64H154.919V38.12H154.439V37.28H154.919V36.82H167.439V37.28H167.919V40.36H167.439V40.82H157.999ZM153.779 36V35.04H154.279V34.54H168.079V35.04H168.579V36H168.079V36.5H154.279V36H153.779ZM167.439 31.54V32H157.999V32.36H167.439V32.82H167.919V33.72H167.439V34.18H154.919V33.72H154.439V30.66H154.919V30.2H164.339V29.82H154.919V29.3H154.439V28.46H154.919V28H167.439V28.46H167.919V31.54H167.439ZM179.279 30.98H177.559V33.58H179.279V30.98ZM187.159 43H174.999V42.34H174.339V38.1H174.999V37.44H177.259V38.1H177.919V39.82H187.159V40.48H187.819V42.34H187.159V43ZM184.919 28H187.179V28.66H187.819V30.7H188.859V31.36H189.519V33.24H188.859V33.9H187.819V35.94H187.179V36.6H184.919V35.94H184.259V28.66H184.919V28ZM173.979 28.66H174.639V28H182.199V28.66H182.859V35.9H182.199V36.56H174.639V35.9H173.979V28.66ZM203.765 28V28.56H204.325V29.62H203.765V30.18H194.425V30.68H203.765V31.24H204.325V32.3H203.765V32.86H191.505V32.2H190.845V28.66H191.505V28H203.765ZM194.405 40.56V40.94H203.845V41.42H204.325V42.52H203.845V43H191.325V42.52H190.845V39H191.325V38.5H200.745V38.1H191.325V37.62H190.845V36.52H191.325V36.04H203.845V36.52H204.325V40.08H203.845V40.56H194.405ZM190.185 35.08V33.86H190.685V33.36H204.485V33.86H204.985V35.08H204.485V35.58H190.685V35.08H190.185ZM211.781 38.88V31.64H211.221V31.16H210.381V31.64H209.841V38.88H210.381V39.34H211.221V38.88H211.781ZM215.261 37.08V40.52H214.601V41.2H213.961V41.86H213.321V42.52H208.321V41.86H207.661V41.2H207.021V40.52H206.361V29.98H207.021V29.32H207.661V28.66H208.321V28H213.321V28.66H213.961V29.32H214.601V29.98H215.261V33.92H217.121V28.66H217.781V28H220.061V28.66H220.721V42.34H220.061V43H217.781V42.34H217.121V37.08H215.261ZM234.177 30.66V31.1H234.837V31.42H235.477V31.74H236.117V32.38H236.577V33.74H236.117V34.38H234.357V34.06H233.497V33.74H232.857V33.4H232.217V33.08H231.537V32.76H230.737V32.42H229.997V32.1H229.177V32.42H228.417V32.76H227.617V33.08H226.957V33.4H226.297V33.74H225.657V34.06H224.817V34.38H223.037V33.74H222.577V32.38H223.037V31.74H223.697V31.42H224.337V31.1H224.977V30.66H223.137V30.1H222.577V28.58H223.137V28H236.017V28.58H236.577V30.1H236.017V30.66H234.177ZM235.657 40.68H236.317V42.34H235.657V43H223.497V42.34H222.837V39H223.497V38.34H225.757V39H226.417V40.02H235.657V40.68ZM227.777 37.82H222.737V37.26H222.177V35.62H222.737V35.06H236.417V35.62H236.977V37.26H236.417V37.82H231.377V38.74H230.717V39.4H228.437V38.74H227.777V37.82ZM249.313 28H251.573V28.66H252.213V33.9H253.253V34.56H253.913V36.44H253.253V37.1H252.213V42.34H251.573V43H249.313V42.34H248.653V28.66H249.313V28ZM245.993 28V28.66H246.653V30.52H245.993V31.18H241.953V39.18H245.993V39.84H246.653V41.7H245.993V42.36H239.033V41.7H238.373V28.66H239.033V28H245.993ZM256.1 28.66V28H267.86V28.66H268.52V36.42H267.86V37.08H265.6V36.42H264.94V31.18H256.1V30.52H255.44V28.66H256.1ZM262.68 39.44H268.72V40.1H269.38V41.94H268.72V42.6H255.24V41.94H254.58V40.1H255.24V39.44H259.08V35.08H259.74V34.42H262.02V35.08H262.68V39.44ZM278.76 39.4V35.7H278.4V35.24H277.94V35.7H277.58V39.4H277.94V39.86H278.4V39.4H278.76ZM285.84 37.08V42.34H285.18V43H283.36V42.34H282.7V28.66H283.36V28H285.18V28.66H285.84V33.92H286.38V28.66H287.04V28H288.86V28.66H289.52V42.34H288.86V43H287.04V42.34H286.38V37.08H285.84ZM281.24 34.28H281.88V40.8H281.24V41.44H280.6V42.08H279.96V42.72H276.56V42.08H275.92V41.44H275.28V40.8H274.66V34.28H275.28V33.64H275.92V33H276.56V32.38H279.96V33H280.6V33.64H281.24V34.28ZM280.08 28.8H281.44V29.46H282.1V31.32H281.44V31.98H275.08V31.32H274.42V29.46H275.08V28.8H276.44V27.88H277.12V27.3H279.4V27.88H280.08V28.8ZM301.126 31.16H295.686V31.72H295.206V32.9H295.686V33.46H301.126V32.9H301.586V31.72H301.126V31.16ZM299.206 39.44V37.98H299.866V37.32H302.126V37.98H302.786V39.44H305.126V40.1H305.786V41.94H305.126V42.6H291.646V41.94H290.986V40.1H291.646V39.44H294.046V37.98H294.706V37.32H296.966V37.98H297.626V39.44H299.206ZM293.706 28.66V28H303.046V28.66H303.726V29.32H304.386V29.98H305.046V34.62H304.386V35.28H303.726V35.94H303.046V36.62H293.706V35.94H293.046V35.28H292.386V34.62H291.726V29.98H292.386V29.32H293.046V28.66H293.706ZM310.782 27.7V28.34H311.422V37.32H310.782V37.96H308.462V37.32H307.822V28.34H308.462V27.7H310.782ZM310.782 39.14V39.78H311.422V42.16H310.782V42.8H308.462V42.16H307.822V39.78H308.462V39.14H310.782ZM22.9604 58.18H21.2404V66.18H22.9604V58.18ZM31.3404 55V55.66H32.0004V69.34H31.3404V70H29.0604V69.34H28.4004V55.66H29.0604V55H31.3404ZM17.6604 55.66H18.3204V55H25.8804V55.66H26.5404V68.7H25.8804V69.36H18.3204V68.7H17.6604V55.66ZM42.6565 66.44H47.5965V67.1H48.2565V68.94H47.5965V69.6H34.1165V68.94H33.4565V67.1H34.1165V66.44H39.0565V65.06H34.8965V64.4H34.2165V59.22H34.8965V58.56H43.9165V57.98H34.8965V57.32H34.2165V55.66H34.8965V55H46.8165V55.66H47.4965V60.86H46.8165V61.52H37.7765V62.08H46.8165V62.74H47.4965V64.4H46.8165V65.06H42.6565V66.44ZM53.6726 67.82V68.18H63.1126V68.64H63.5926V69.54H63.1126V70H50.5926V69.54H50.1126V66.48H50.5926V66.02H60.0126V65.64H50.5926V65.12H50.1126V64.28H50.5926V63.82H63.1126V64.28H63.5926V67.36H63.1126V67.82H53.6726ZM49.4526 63V62.04H49.9526V61.54H63.7526V62.04H64.2526V63H63.7526V63.5H49.9526V63H49.4526ZM63.1126 58.54V59H53.6726V59.36H63.1126V59.82H63.5926V60.72H63.1126V61.18H50.5926V60.72H50.1126V57.66H50.5926V57.2H60.0126V56.82H50.5926V56.3H50.1126V55.46H50.5926V55H63.1126V55.46H63.5926V58.54H63.1126ZM73.6326 66.4V62.7H73.2726V62.24H72.8126V62.7H72.4526V66.4H72.8126V66.86H73.2726V66.4H73.6326ZM80.7126 64.08V69.34H80.0526V70H78.2326V69.34H77.5726V55.66H78.2326V55H80.0526V55.66H80.7126V60.92H81.2526V55.66H81.9126V55H83.7326V55.66H84.3926V69.34H83.7326V70H81.9126V69.34H81.2526V64.08H80.7126ZM76.1126 61.28H76.7526V67.8H76.1126V68.44H75.4726V69.08H74.8326V69.72H71.4326V69.08H70.7926V68.44H70.1526V67.8H69.5326V61.28H70.1526V60.64H70.7926V60H71.4326V59.38H74.8326V60H75.4726V60.64H76.1126V61.28ZM74.9526 55.8H76.3126V56.46H76.9726V58.32H76.3126V58.98H69.9526V58.32H69.2926V56.46H69.9526V55.8H71.3126V54.88H71.9926V54.3H74.2726V54.88H74.9526V55.8ZM96.7988 60.96H95.2188V60.4H94.7188V59.26H95.2188V58.72H96.7988V58.36H95.2188V57.8H94.7188V56.66H95.2188V56.12H96.7988V55.66H97.4588V55H99.5388V55.66H100.199V61.46H99.5388V62.12H97.4588V61.46H96.7988V60.96ZM86.7188 55H93.4788V55.66H94.1388V61.42H93.4788V62.08H91.2188V61.42H90.5588V57.78H86.7188V57.12H86.0588V55.66H86.7188V55ZM90.2788 67.42V67.84H99.6588V68.36H100.199V69.48H99.6588V70H87.2588V69.48H86.7188V65.78H87.2588V65.28H96.6188V64.86H87.2588V64.34H86.7188V63.2H87.2588V62.7H99.6588V63.2H100.199V66.9H99.6588V67.42H90.2788ZM107.295 66.5V62.8H106.835V62.34H106.175V62.8H105.715V66.5H106.175V66.96H106.835V66.5H107.295ZM112.995 55H115.255V55.66H115.895V60.9H116.935V61.56H117.595V63.44H116.935V64.1H115.895V69.34H115.255V70H112.995V69.34H112.335V55.66H112.995V55ZM108.335 55.8H110.715V56.46H111.375V58.32H110.715V58.98H102.355V58.32H101.695V56.46H102.355V55.8H104.715V54.88H105.395V54.3H107.655V54.88H108.335V55.8ZM110.275 61.48H110.915V67.8H110.275V68.44H109.635V69.08H108.995V69.72H103.995V69.08H103.355V68.44H102.715V67.8H102.095V61.48H102.715V60.84H103.355V60.2H103.995V59.58H108.995V60.2H109.635V60.84H110.275V61.48ZM119.781 55.66V55H131.541V55.66H132.201V63.42H131.541V64.08H129.281V63.42H128.621V58.18H119.781V57.52H119.121V55.66H119.781ZM126.361 66.44H132.401V67.1H133.061V68.94H132.401V69.6H118.921V68.94H118.261V67.1H118.921V66.44H122.761V62.08H123.421V61.42H125.701V62.08H126.361V66.44ZM148.781 67.54V67.14H149.241V66.8H148.781V66.4H142.741V66.8H142.261V67.14H142.741V67.54H148.781ZM150.661 70H140.801V69.36H140.141V68.66H139.481V67.94H138.981V65.98H139.481V65.26H140.141V64.56H140.801V63.94H150.661V64.56H151.341V65.26H152.001V65.98H152.501V67.94H152.001V68.66H151.341V69.36H150.661V70ZM141.841 60.36V60.78H146.881V61.34H147.441V62.7H146.881V63.26H139.021V62.7H138.461V55.56H139.021V55H146.881V55.56H147.441V56.92H146.881V57.48H141.841V57.88H146.881V58.44H147.441V59.8H146.881V60.36H141.841ZM149.401 55H151.661V55.66H152.301V57.5H153.341V58.16H154.001V60H153.341V60.66H152.301V62.6H151.661V63.26H149.401V62.6H148.741V55.66H149.401V55ZM159.627 61.4H164.527V61.1H164.987V60.62H164.527V60.32H159.627V60.62H159.167V61.1H159.627V61.4ZM160.267 67.62H155.327V66.98H154.667V65.32H155.327V64.66H168.807V65.32H169.467V66.98H168.807V67.62H163.867V69.34H163.207V70H160.927V69.34H160.267V67.62ZM157.187 58.54H155.647V57.88H154.987V56.22H155.647V55.56H160.247V54.84H160.927V54.26H163.187V54.84H163.867V55.56H168.487V56.22H169.147V57.88H168.487V58.54H167.187V59.04H167.827V59.64H168.447V62.28H167.827V62.88H167.187V63.5H166.547V64.1H157.827V63.5H157.187V62.88H156.547V62.28H155.907V59.64H156.547V59.04H157.187V58.54ZM184.164 60.68H174.924V61.28H184.164V61.82H184.704V63.3H184.164V63.84H171.964V63.3H171.424V58.68H171.964V58.14H181.204V57.54H171.964V56.98H171.424V55.54H171.964V54.98H184.164V55.54H184.704V60.14H184.164V60.68ZM185.464 66.98H184.804V67.62H179.864V69.34H179.204V70H176.924V69.34H176.264V67.62H171.324V66.98H170.664V65.12H171.324V64.46H184.804V65.12H185.464V66.98ZM190.88 67.82V68.18H200.32V68.64H200.8V69.54H200.32V70H187.8V69.54H187.32V66.48H187.8V66.02H197.22V65.64H187.8V65.12H187.32V64.28H187.8V63.82H200.32V64.28H200.8V67.36H200.32V67.82H190.88ZM186.66 63V62.04H187.16V61.54H200.96V62.04H201.46V63H200.96V63.5H187.16V63H186.66ZM200.32 58.54V59H190.88V59.36H200.32V59.82H200.8V60.72H200.32V61.18H187.8V60.72H187.32V57.66H187.8V57.2H197.22V56.82H187.8V56.3H187.32V55.46H187.8V55H200.32V55.46H200.8V58.54H200.32ZM212.16 57.98H210.44V60.58H212.16V57.98ZM208.18 64.44H220.34V65.1H221V69.34H220.34V70H218.08V69.34H217.42V67.62H208.18V66.96H207.52V65.1H208.18V64.44ZM215.74 60.88V62.9H215.08V63.56H207.52V62.9H206.86V55.66H207.52V55H215.08V55.66H215.74V57.72H217.4V55.66H218.06V55H220.34V55.66H221V62.94H220.34V63.6H218.06V62.94H217.4V60.88H215.74ZM228.256 65.88V58.64H227.696V58.16H226.856V58.64H226.316V65.88H226.856V66.34H227.696V65.88H228.256ZM231.736 64.08V67.52H231.076V68.2H230.436V68.86H229.796V69.52H224.796V68.86H224.136V68.2H223.496V67.52H222.836V56.98H223.496V56.32H224.136V55.66H224.796V55H229.796V55.66H230.436V56.32H231.076V56.98H231.736V60.92H233.596V55.66H234.256V55H236.536V55.66H237.196V69.34H236.536V70H234.256V69.34H233.596V64.08H231.736ZM249.172 58.4V57.86H242.932V58.4H249.172ZM252.792 67.2H252.312V67.66H242.872V68.12H252.312V68.58H252.792V69.54H252.312V70H239.792V69.54H239.312V66.26H239.792V65.8H249.212V65.32H239.792V64.86H239.312V63.9H239.792V63.44H252.312V63.9H252.792V67.2ZM244.252 60.34H239.972V59.68H239.312V55.52H239.972V55H242.252V55.52H242.932V55.94H249.172V55.52H249.832V55H252.112V55.52H252.792V59.68H252.112V60.34H247.852V60.76H252.892V61.32H253.452V62.46H252.892V63.02H239.212V62.46H238.652V61.32H239.212V60.76H244.252V60.34ZM266.188 55H268.248V55.66H268.888V60.9H269.828V61.46H270.388V63.54H269.828V64.1H268.888V69.34H268.248V70H266.188V69.34H265.528V55.66H266.188V55ZM259.988 58.18V68.76H259.328V69.42H257.268V68.76H256.608V58.18H255.308V57.52H254.648V55.66H255.308V55H263.668V55.66H264.328V68.7H263.668V69.36H261.608V68.7H260.948V58.18H259.988ZM281.194 58.16H275.754V58.72H275.274V59.9H275.754V60.46H281.194V59.9H281.654V58.72H281.194V58.16ZM279.274 66.44V64.98H279.934V64.32H282.194V64.98H282.854V66.44H285.194V67.1H285.854V68.94H285.194V69.6H271.714V68.94H271.054V67.1H271.714V66.44H274.114V64.98H274.774V64.32H277.034V64.98H277.694V66.44H279.274ZM273.774 55.66V55H283.114V55.66H283.794V56.32H284.454V56.98H285.114V61.62H284.454V62.28H283.794V62.94H283.114V63.62H273.774V62.94H273.114V62.28H272.454V61.62H271.794V56.98H272.454V56.32H273.114V55.66H273.774ZM295.93 56.5V61.54H295.35V62.12H294.79V62.7H294.21V63.28H292.75V64.62H292.17V65.22H289.81V64.62H289.23V61.16H289.81V60.56H292.13V60.1H292.61V58.34H292.13V57.86H290.49V58.34H290.01V59.28H289.43V59.86H287.27V59.28H286.69V56.5H287.27V55.92H287.83V55.34H288.41V54.76H294.21V55.34H294.79V55.92H295.35V56.5H295.93ZM292.13 66.14V66.78H292.77V69.16H292.13V69.8H289.81V69.16H289.17V66.78H289.81V66.14H292.13Z" fill="black"/>
</svg>
