<svg width="308" height="97" viewBox="0 0 308 97" fill="none" xmlns="http://www.w3.org/2000/svg">
<path d="M56.5 39.9V39.05H57.65V38.3H56.5V37.45H41.4V38.3H40.2V39.05H41.4V39.9H56.5ZM53.4 10.65H55V11.55H56.9V12.4H58.75V13.3H60.4V14.2H62.05V15.1H63.65V16H65.25V17.75H66.4V21.6H65.25V22.85H60.85V21.95H58.7V21.05H57.1V20.15H55.5V19.3H53.8V18.4H51.95V17.5H50.1V16.6H47.75V17.5H45.85V18.4H44V19.3H42.35V20.15H40.7V21.05H39.1V21.95H37V22.85H32.55V21.6H31.4V17.75H32.55V16H34.2V15.1H35.8V14.2H37.4V13.3H39.05V12.4H40.95V11.55H42.8V10.65H44.45V8.55H46.1V7.5H51.8V8.55H53.4V10.65ZM58.9 31.4H61.45V32.7H63.15V34.4H64.8V35.95H66.05V41.4H64.8V42.95H63.15V44.65H61.45V46H36.3V44.65H34.65V42.95H33V41.4H31.75V35.95H33V34.4H34.65V32.7H36.3V31.4H38.8V30.25H31.8V28.85H30.4V25.25H31.8V23.85H66V25.25H67.4V28.85H66V30.25H58.9V31.4ZM46.8 31.4H50.9V30.25H46.8V31.4ZM96.4902 39.9V39.05H97.6402V38.3H96.4902V37.45H81.3902V38.3H80.1902V39.05H81.3902V39.9H96.4902ZM93.3902 10.65H94.9902V11.55H96.8902V12.4H98.7402V13.3H100.39V14.2H102.04V15.1H103.64V16H105.24V17.75H106.39V21.6H105.24V22.85H100.84V21.95H98.6902V21.05H97.0902V20.15H95.4902V19.3H93.7902V18.4H91.9402V17.5H90.0902V16.6H87.7402V17.5H85.8402V18.4H83.9902V19.3H82.3402V20.15H80.6902V21.05H79.0902V21.95H76.9902V22.85H72.5402V21.6H71.3902V17.75H72.5402V16H74.1902V15.1H75.7902V14.2H77.3902V13.3H79.0402V12.4H80.9402V11.55H82.7902V10.65H84.4402V8.55H86.0902V7.5H91.7902V8.55H93.3902V10.65ZM98.8902 31.4H101.44V32.7H103.14V34.4H104.79V35.95H106.04V41.4H104.79V42.95H103.14V44.65H101.44V46H76.2902V44.65H74.6402V42.95H72.9902V41.4H71.7402V35.95H72.9902V34.4H74.6402V32.7H76.2902V31.4H78.7902V30.25H71.7902V28.85H70.3902V25.25H71.7902V23.85H105.99V25.25H107.39V28.85H105.99V30.25H98.8902V31.4ZM86.7902 31.4H90.8902V30.25H86.7902V31.4ZM124.38 35.7V17.6H122.98V16.4H120.88V17.6H119.53V35.7H120.88V36.85H122.98V35.7H124.38ZM131.43 13.45H133.08V39.8H131.43V41.5H129.83V43.15H128.23V44.8H115.73V43.15H114.08V41.5H112.48V39.8H110.83V13.45H112.48V11.8H114.08V10.15H115.73V8.5H128.23V10.15H129.83V11.8H131.43V13.45ZM145.08 8.5V10.15H146.73V44.35H145.08V46H139.38V44.35H137.73V10.15H139.38V8.5H145.08ZM186.48 39.8V38.9H187.63V38.1H186.48V37.2H171.38V38.1H170.18V38.9H171.38V39.8H186.48ZM191.43 46H166.28V44.55H164.63V42.75H162.98V41.1H161.73V35.8H162.98V34.15H164.63V32.35H166.28V30.95H191.43V32.35H193.13V34.15H194.78V35.8H196.03V41.1H194.78V42.75H193.13V44.55H191.43V46ZM174.38 21H163.68V19.35H162.03V10.15H163.68V8.5H169.33V10.15H170.98V14.2H194.08V15.85H195.73V19.35H194.08V21H183.38V22.5H195.98V23.9H197.38V28H195.98V29.4H161.78V28H160.38V23.9H161.78V22.5H174.38V21ZM214.421 38.3H202.021V36.7H200.371V32.05H202.021V30.4H235.721V32.05H237.371V36.7H235.721V38.3H223.371V44.35H221.721V46H216.071V44.35H214.421V38.3ZM226.171 20.95V19.6H211.571V20.95H226.171ZM233.521 8.5V10.15H235.221V26.7H233.521V28.35H204.171V26.7H202.521V10.15H204.171V8.5H209.871V10.15H211.571V11.95H226.171V10.15H227.821V8.5H233.521Z" fill="#00B1D3"/>
<path d="M256.011 23.7V17.6H254.611V16.4H251.961V17.6H250.561V23.7H251.961V24.85H254.611V23.7H256.011ZM270.211 8.5H275.611V10.15H277.211V44.35H275.611V46H270.211V44.35H268.561V10.15H270.211V8.5ZM247.161 32.8V31.15H245.511V29.5H243.861V27.8H242.161V13.45H243.861V11.8H245.511V10.15H247.161V8.5H259.461V10.15H261.111V11.8H262.761V13.45H264.411V27.8H262.761V29.5H261.111V31.15H259.461V32.8H247.161ZM264.561 36.1V37.75H266.211V42.35H264.561V44H242.011V42.35H240.361V37.75H242.011V36.1H264.561Z" fill="black"/>
<path d="M22.16 86.08V85.28H23.08V84.6H22.16V83.8H10.08V84.6H9.12V85.28H10.08V86.08H22.16ZM25.92 91H6.2V89.72H4.88V88.32H3.56V86.88H2.56V82.96H3.56V81.52H4.88V80.12H6.2V78.88H25.92V80.12H27.28V81.52H28.6V82.96H29.6V86.88H28.6V88.32H27.28V89.72H25.92V91ZM8.28 71.72V72.56H18.36V73.68H19.48V76.4H18.36V77.52H2.64V76.4H1.52V62.12H2.64V61H18.36V62.12H19.48V64.84H18.36V65.96H8.28V66.76H18.36V67.88H19.48V70.6H18.36V71.72H8.28ZM23.4 61H27.92V62.32H29.2V66H31.28V67.32H32.6V71H31.28V72.32H29.2V76.2H27.92V77.52H23.4V76.2H22.08V62.32H23.4V61Z" fill="#FF0000"/>
<path d="M43.8525 73.8H53.6525V73.2H54.5725V72.24H53.6525V71.64H43.8525V72.24H42.9325V73.2H43.8525V73.8ZM45.1325 86.24H35.2525V84.96H33.9325V81.64H35.2525V80.32H62.2125V81.64H63.5325V84.96H62.2125V86.24H52.3325V89.68H51.0125V91H46.4525V89.68H45.1325V86.24ZM38.9725 68.08H35.8925V66.76H34.5725V63.44H35.8925V62.12H45.0925V60.68H46.4525V59.52H50.9725V60.68H52.3325V62.12H61.5725V63.44H62.8925V66.76H61.5725V68.08H58.9725V69.08H60.2525V70.28H61.4925V75.56H60.2525V76.76H58.9725V78H57.6925V79.2H40.2525V78H38.9725V76.76H37.6925V75.56H36.4125V70.28H37.6925V69.08H38.9725V68.08Z" fill="#1AD042"/>
<path d="M92.9247 72.36H74.4447V73.56H92.9247V74.64H94.0047V77.6H92.9247V78.68H68.5247V77.6H67.4447V68.36H68.5247V67.28H87.0047V66.08H68.5247V64.96H67.4447V62.08H68.5247V60.96H92.9247V62.08H94.0047V71.28H92.9247V72.36ZM95.5247 84.96H94.2047V86.24H84.3247V89.68H83.0047V91H78.4447V89.68H77.1247V86.24H67.2447V84.96H65.9247V81.24H67.2447V79.92H94.2047V81.24H95.5247V84.96Z" fill="#9014DC"/>
<path d="M116.925 66.96H113.485V72.16H116.925V66.96ZM132.685 91H108.365V89.68H107.045V81.2H108.365V79.88H112.885V81.2H114.205V84.64H132.685V85.96H134.005V89.68H132.685V91ZM128.205 61H132.725V62.32H134.005V66.4H136.085V67.72H137.405V71.48H136.085V72.8H134.005V76.88H132.725V78.2H128.205V76.88H126.885V62.32H128.205V61ZM106.325 62.32H107.645V61H122.765V62.32H124.085V76.8H122.765V78.12H107.645V76.8H106.325V62.32ZM165.897 61V62.12H167.017V64.24H165.897V65.36H147.217V66.36H165.897V67.48H167.017V69.6H165.897V70.72H141.377V69.4H140.057V62.32H141.377V61H165.897ZM147.177 86.12V86.88H166.057V87.84H167.017V90.04H166.057V91H141.017V90.04H140.057V83H141.017V82H159.857V81.2H141.017V80.24H140.057V78.04H141.017V77.08H166.057V78.04H167.017V85.16H166.057V86.12H147.177ZM138.737 75.16V72.72H139.737V71.72H167.337V72.72H168.337V75.16H167.337V76.16H139.737V75.16H138.737ZM198.489 61V62.32H199.809V89.68H198.489V91H193.929V89.68H192.609V62.32H193.929V61H198.489ZM172.449 61H185.969V62.32H187.289V88.4H185.969V89.72H181.449V88.4H180.129V67.36H172.449V66.04H171.129V62.32H172.449V61ZM232.689 79.16V89.68H231.369V91H227.569V89.68H226.249V62.32H227.569V61H231.369V62.32H232.689V72.84H234.169V62.32H235.489V61H239.289V62.32H240.609V89.68H239.289V91H235.489V89.68H234.169V79.16H232.689ZM223.569 61V62.32H224.889V66.04H223.569V67.36H217.929V83.36H223.569V84.68H224.889V88.4H223.569V89.72H212.449V88.4H211.129V62.32H212.449V61H223.569ZM248.382 67.32H244.702V66H243.382V62.32H244.702V61H261.342V62.32H262.662V66H261.342V67.32H257.662V68.72H258.822V69.84H259.942V71H261.102V72.12H262.222V76.84H261.102V77.96H257.662V76.84H256.542V75.68H255.382V74.56H254.262V73.44H251.782V74.56H250.662V75.68H249.502V76.84H248.382V77.96H244.942V76.84H243.822V72.12H244.942V71H246.102V69.84H247.222V68.72H248.382V67.32ZM265.822 61H270.342V62.32H271.622V66.4H273.702V67.72H275.022V71.48H273.702V72.8H271.622V76.88H270.342V78.2H265.822V76.88H264.502V62.32H265.822V61ZM245.982 79.88H270.302V81.2H271.622V89.68H270.302V91H265.782V89.68H264.462V86.24H245.982V84.92H244.662V81.2H245.982V79.88ZM297.834 72.32H295.314V71.12H294.074V67.68H295.314V66.52H297.834V62.32H299.154V61H303.714V62.32H305.034V76.88H303.714V78.2H299.154V76.88H297.834V72.32ZM303.714 91H279.394V89.68H278.074V81.2H279.394V79.88H283.914V81.2H285.234V84.64H303.714V85.96H305.034V89.68H303.714V91ZM281.194 67.32H277.514V66H276.194V62.32H277.514V61H293.354V62.32H294.674V66H293.354V67.32H289.674V68.72H290.834V69.84H291.954V71H293.114V72.12H294.234V77H293.114V78.12H289.674V77H288.554V75.84H287.394V74.72H286.274V73.6H284.594V74.72H283.474V75.84H282.314V77H281.194V78.12H277.754V77H276.634V72.12H277.754V71H278.914V69.84H280.034V68.72H281.194V67.32Z" fill="black"/>
</svg>
